<svg id="Layer_1" viewBox="0 0 24 24" xmlns="http://www.w3.org/2000/svg" data-name="Layer 1"><path d="m4.514 15 1.646 1.264c.35.268.811.312 1.201.118.393-.193.637-.586.637-1.023l.002-4.855c0-1.378-1.121-2.5-2.499-2.5h-3s0-.001-.002-.001c-.667 0-1.294.26-1.767.731-.472.473-.732 1.101-.732 1.769v1.999c0 1.379 1.121 2.5 2.5 2.5h2.014zm-3.514-2.5v-1.999c0-.401.156-.778.439-1.061s.66-.44 1.06-.44h3.002c.826 0 1.499.676 1.499 1.503v4.855c-.01.129-.124.181-.23.112l-1.781-1.367c-.088-.067-.194-.104-.305-.104h-2.184c-.827 0-1.5-.673-1.5-1.5zm22.469-1.5c-.276.011-.49.244-.479.52.007.159.011.319.011.479 0 1.412-.277 2.758-.764 4h-4.869c.383-1.129.633-2.309.633-3.5 0-.276-.224-.5-.5-.5s-.5.224-.5.5c0 1.181-.279 2.367-.699 3.5h-6.301c-.276 0-.5.224-.5.5s.224.5.5.5h5.89c-1.226 2.692-3.117 4.922-3.891 5.77-.657-.72-2.102-2.409-3.265-4.512-.133-.242-.438-.327-.68-.195-.241.134-.329.438-.195.68.995 1.799 2.16 3.278 2.934 4.176-3.549-.392-6.72-2.475-8.456-5.657-.131-.243-.436-.333-.678-.199-.242.132-.332.436-.199.678 2.106 3.862 6.145 6.261 10.54 6.261 6.617 0 12-5.383 12-12 0-.174-.004-.348-.011-.521-.013-.276-.251-.499-.521-.479zm-10.272 11.931c1.016-1.173 2.708-3.355 3.791-5.932h4.797c-1.651 3.219-4.836 5.523-8.589 5.932zm-10.968-17.019c-.228-.156-.285-.467-.129-.695 2.243-3.267 5.944-5.217 9.9-5.217 1.247 0 2.477.19 3.652.566.263.084.408.365.324.628-.085.263-.366.411-.629.324-.699-.223-1.419-.367-2.151-.446.341.395.755.9 1.204 1.503.165.222.118.535-.104.7-.219.164-.533.12-.699-.103-.65-.873-1.24-1.551-1.598-1.943-.7.767-2.32 2.659-3.527 4.999-.128.248-.433.341-.674.215-.245-.126-.342-.428-.215-.673 1.05-2.036 2.369-3.717 3.215-4.697-3.165.347-6.049 2.048-7.876 4.71-.157.229-.47.284-.695.129zm11.271 1.088c.276 0 .5.224.5.5s-.224.5-.5.5h-4c-.276 0-.5-.224-.5-.5s.224-.5.5-.5zm3.646 3.501c-.172 0-.346-.039-.507-.119-.393-.194-.637-.586-.637-1.024l-.002-4.855c0-1.378 1.121-2.5 2.499-2.5h3s0-.001.002-.001c.667 0 1.294.26 1.767.731.472.473.732 1.101.732 1.769v1.999c0 1.378-1.121 2.5-2.5 2.5h-2.014l-1.646 1.264c-.205.157-.449.237-.694.237zm4.354-7.5h-3c-.826.002-1.499.675-1.499 1.502l.002 4.855c0 .073.043.11.079.127.036.018.093.029.149-.015l1.781-1.367c.088-.067.194-.104.305-.104h2.184c.827 0 1.5-.673 1.5-1.5v-1.999c0-.401-.156-.778-.439-1.061-.284-.284-.699-.43-1.062-.439z"/></svg>