<?xml version="1.0" encoding="UTF-8"?>
<!DOCTYPE svg PUBLIC "-//W3C//DTD SVG 1.1//EN" "http://www.w3.org/Graphics/SVG/1.1/DTD/svg11.dtd">
<svg xmlns="http://www.w3.org/2000/svg" version="1.1" width="500px" height="500px" style="shape-rendering:geometricPrecision; text-rendering:geometricPrecision; image-rendering:optimizeQuality; fill-rule:evenodd; clip-rule:evenodd" xmlns:xlink="http://www.w3.org/1999/xlink">
<g><path style="opacity:0.004" fill="#fefffe" d="M 275.5,1.5 C 276.833,2.16667 276.833,2.16667 275.5,1.5 Z"/></g>
<g><path style="opacity:0.004" fill="#fefffe" d="M 358.5,2.5 C 359.833,3.16667 359.833,3.16667 358.5,2.5 Z"/></g>
<g><path style="opacity:0.004" fill="#fefffe" d="M 51.5,4.5 C 52.8333,5.16667 52.8333,5.16667 51.5,4.5 Z"/></g>
<g><path style="opacity:0.004" fill="#fefffe" d="M 307.5,5.5 C 308.833,6.16667 308.833,6.16667 307.5,5.5 Z"/></g>
<g><path style="opacity:0.004" fill="#fefffe" d="M 210.5,8.5 C 211.833,9.16667 211.833,9.16667 210.5,8.5 Z"/></g>
<g><path style="opacity:0.004" fill="#fefffe" d="M 342.5,17.5 C 343.833,18.1667 343.833,18.1667 342.5,17.5 Z"/></g>
<g><path style="opacity:0.004" fill="#fefffe" d="M 422.5,31.5 C 423.833,32.1667 423.833,32.1667 422.5,31.5 Z"/></g>
<g><path style="opacity:0.004" fill="#fefffe" d="M 49.5,36.5 C 50.8333,37.1667 50.8333,37.1667 49.5,36.5 Z"/></g>
<g><path style="opacity:0.004" fill="#fefffe" d="M 420.5,44.5 C 421.833,45.1667 421.833,45.1667 420.5,44.5 Z"/></g>
<g><path style="opacity:0.004" fill="#fefffe" d="M 345.5,64.5 C 346.833,65.1667 346.833,65.1667 345.5,64.5 Z"/></g>
<g><path style="opacity:1" fill="#0b0a0c" d="M 180.5,68.5 C 182.515,69.9238 184.848,70.5905 187.5,70.5C 192.272,71.5257 196.939,72.8591 201.5,74.5C 202.358,77.295 204.358,77.9617 207.5,76.5C 211.162,76.7234 214.495,77.7234 217.5,79.5C 218.552,81.256 220.219,81.9227 222.5,81.5C 223.5,81.8333 224.167,82.5 224.5,83.5C 225.167,84.8333 226.167,85.8333 227.5,86.5C 229.173,87.343 230.34,88.6763 231,90.5C 234.333,97.8333 234.333,105.167 231,112.5C 229.454,115.592 227.954,118.592 226.5,121.5C 225.778,121.918 225.278,122.584 225,123.5C 224.5,150.165 224.333,176.831 224.5,203.5C 224.5,203.833 224.5,204.167 224.5,204.5C 223.262,206.214 222.595,208.214 222.5,210.5C 222.443,211.609 222.11,212.609 221.5,213.5C 220.178,213.67 219.011,213.337 218,212.5C 217.544,213.744 218.044,214.577 219.5,215C 217.368,216.697 216.035,218.864 215.5,221.5C 212.616,225.549 208.949,228.716 204.5,231C 206.72,234.615 209.053,238.115 211.5,241.5C 211.427,243.027 212.094,244.027 213.5,244.5C 221.742,246.971 229.742,250.138 237.5,254C 238.406,255.699 238.739,257.533 238.5,259.5C 236.504,261.333 234.171,261.833 231.5,261C 224.609,258.305 217.776,255.471 211,252.5C 200.453,257.886 190.286,263.886 180.5,270.5C 193.015,273.593 204.681,278.593 215.5,285.5C 217.998,278.816 222.665,276.316 229.5,278C 240.181,281.171 249.181,287.004 256.5,295.5C 259.135,294.189 261.469,292.522 263.5,290.5C 261.708,282.912 257.874,276.579 252,271.5C 251.322,269.402 251.489,267.402 252.5,265.5C 253.946,264.387 255.613,264.22 257.5,265C 262.918,269.908 266.918,275.742 269.5,282.5C 269.259,284.898 269.926,286.898 271.5,288.5C 271.833,288.5 272.167,288.5 272.5,288.5C 277.939,289.018 282.939,288.018 287.5,285.5C 289.379,284.659 291.379,284.325 293.5,284.5C 296.187,284.664 298.854,284.497 301.5,284C 302.252,283.329 302.586,282.496 302.5,281.5C 305.516,277.485 309.183,274.152 313.5,271.5C 313.027,270.094 312.027,269.427 310.5,269.5C 299.435,259.713 292.768,247.38 290.5,232.5C 290.5,231.5 290.5,230.5 290.5,229.5C 288.5,229.5 286.5,229.5 284.5,229.5C 274.721,227.044 269.721,220.71 269.5,210.5C 269.323,206.706 270.323,203.373 272.5,200.5C 273.906,200.027 274.573,199.027 274.5,197.5C 277.194,193.824 280.861,191.824 285.5,191.5C 286.833,191.5 288.167,191.5 289.5,191.5C 289.821,186.305 289.487,181.305 288.5,176.5C 284.363,169.038 280.696,161.371 277.5,153.5C 277.36,147.464 277.693,141.464 278.5,135.5C 282.266,126.745 288.933,121.745 298.5,120.5C 302.162,120.277 305.495,119.277 308.5,117.5C 311.152,117.59 313.485,116.924 315.5,115.5C 317.717,114.631 320.05,114.298 322.5,114.5C 336.502,113.191 350.502,113.191 364.5,114.5C 364.833,114.5 365.167,114.5 365.5,114.5C 368.544,116.011 371.878,116.678 375.5,116.5C 383.633,117.988 391.3,120.655 398.5,124.5C 399.539,126.531 401.205,127.864 403.5,128.5C 403.427,130.027 404.094,131.027 405.5,131.5C 405.427,133.027 406.094,134.027 407.5,134.5C 407.259,136.898 407.926,138.898 409.5,140.5C 410.755,145.057 410.588,149.723 409,154.5C 405.377,162.084 401.544,169.417 397.5,176.5C 396.513,181.305 396.179,186.305 396.5,191.5C 398.167,191.5 399.833,191.5 401.5,191.5C 406.316,192.072 409.983,194.405 412.5,198.5C 412.427,200.027 413.094,201.027 414.5,201.5C 414.41,204.152 415.076,206.485 416.5,208.5C 417.246,222.244 410.579,229.577 396.5,230.5C 394.279,247.281 386.612,260.948 373.5,271.5C 372.957,271.56 372.624,271.893 372.5,272.5C 373.325,273.386 374.325,273.719 375.5,273.5C 379.5,275.5 382.5,278.5 384.5,282.5C 386.78,284.223 389.447,284.889 392.5,284.5C 394.903,284.448 397.236,284.781 399.5,285.5C 401.811,287.068 404.478,287.902 407.5,288C 406.112,288.889 406.278,289.389 408,289.5C 409.766,288.767 411.599,288.433 413.5,288.5C 428.677,291.682 439.344,300.349 445.5,314.5C 445.926,318.427 446.926,322.093 448.5,325.5C 451.242,350.441 453.908,375.441 456.5,400.5C 456.594,402.912 455.594,404.745 453.5,406C 449.471,406.303 445.471,406.803 441.5,407.5C 371.855,406.673 302.188,406.173 232.5,406C 232,405.5 231.5,405 231,404.5C 231.705,385.447 233.205,366.447 235.5,347.5C 236.809,339.017 237.309,330.35 237,321.5C 236.293,319.919 235.46,318.419 234.5,317C 228.377,316.356 223.544,313.522 220,308.5C 218.056,303.541 215.89,298.708 213.5,294C 179.758,272.178 146.091,272.178 112.5,294C 110.151,298.698 107.984,303.531 106,308.5C 102.456,313.522 97.6229,316.356 91.5,317C 86.323,325.19 82.6564,334.023 80.5,343.5C 77.5258,346.309 74.8591,345.976 72.5,342.5C 73.1667,339.167 73.8333,335.833 74.5,332.5C 70.0659,331.566 66.5659,329.232 64,325.5C 60.5531,331.396 57.3865,337.396 54.5,343.5C 51.7439,347.467 49.0773,347.467 46.5,343.5C 48.0409,338.635 48.7076,333.635 48.5,328.5C 48.5079,325.455 48.8413,322.455 49.5,319.5C 50.2216,319.082 50.7216,318.416 51,317.5C 51.4974,314.854 51.6641,312.187 51.5,309.5C 51.5751,306.794 51.9084,304.127 52.5,301.5C 53.2216,301.082 53.7216,300.416 54,299.5C 54.4974,296.854 54.6641,294.187 54.5,291.5C 54.5172,289.435 54.8505,287.435 55.5,285.5C 57.8337,283.824 58.8337,281.491 58.5,278.5C 61.8506,271.311 66.8506,265.478 73.5,261C 86.3347,254.944 99.3347,249.278 112.5,244C 115.211,240.078 118.045,236.244 121,232.5C 121.47,231.423 121.303,230.423 120.5,229.5C 120.027,228.094 119.027,227.427 117.5,227.5C 109.592,223.018 104.592,216.352 102.5,207.5C 101.727,179.181 101.227,150.847 101,122.5C 100.617,121.944 100.117,121.611 99.5,121.5C 96.7151,116.812 94.7151,111.812 93.5,106.5C 93.335,103.15 93.5017,99.8168 94,96.5C 94.3176,94.9391 95.1509,93.7724 96.5,93C 95.7476,92.3292 95.4142,91.4959 95.5,90.5C 97.5,85.8333 100.833,82.5 105.5,80.5C 107.861,80.3259 110.194,79.9926 112.5,79.5C 113.167,79.5 113.5,79.8333 113.5,80.5C 115.586,84.729 114.253,86.8957 109.5,87C 106.553,89.4356 104.22,92.2689 102.5,95.5C 101.098,103.417 102.764,110.75 107.5,117.5C 144.663,118.498 181.996,118.832 219.5,118.5C 219.629,116.784 219.962,115.117 220.5,113.5C 225.213,107.674 226.213,101.341 223.5,94.5C 220.882,89.8515 216.882,87.1849 211.5,86.5C 197.679,82.2872 183.679,78.1205 169.5,74C 164.5,73.3333 159.5,73.3333 154.5,74C 153.263,74.2321 152.263,74.7321 151.5,75.5C 146.023,76.4597 140.69,77.793 135.5,79.5C 133.793,79.2716 132.126,78.9383 130.5,78.5C 130.5,76.8333 130.5,75.1667 130.5,73.5C 130.842,72.6618 131.508,72.3284 132.5,72.5C 137.165,71.9431 141.498,70.6098 145.5,68.5C 146.708,67.7659 148.041,67.4326 149.5,67.5C 152.152,67.5905 154.485,66.9238 156.5,65.5C 164.851,64.2656 172.851,65.2656 180.5,68.5 Z"/></g>
<g><path style="opacity:0.898" fill="#656664" d="M 156.5,65.5 C 154.485,66.9238 152.152,67.5905 149.5,67.5C 151.515,66.0762 153.848,65.4095 156.5,65.5 Z"/></g>
<g><path style="opacity:0.035" fill="#adaeab" d="M 180.5,68.5 C 183.152,68.4095 185.485,69.0762 187.5,70.5C 184.848,70.5905 182.515,69.9238 180.5,68.5 Z"/></g>
<g><path style="opacity:0.933" fill="#636361" d="M 145.5,68.5 C 141.498,70.6098 137.165,71.9431 132.5,72.5C 136.502,70.3902 140.835,69.0569 145.5,68.5 Z"/></g>
<g><path style="opacity:0.994" fill="#575757" d="M 201.5,74.5 C 203.698,74.8751 205.698,75.5418 207.5,76.5C 204.358,77.9617 202.358,77.295 201.5,74.5 Z"/></g>
<g><path style="opacity:1" fill="#334bb0" d="M 211.5,86.5 C 201.815,84.9018 199.982,87.2351 206,93.5C 207.423,101.284 206.257,108.618 202.5,115.5C 207.792,116.495 213.125,116.828 218.5,116.5C 181.67,117.498 144.67,117.832 107.5,117.5C 102.764,110.75 101.098,103.417 102.5,95.5C 104.963,93.5389 107.297,91.3722 109.5,89C 113.785,88.8832 115.785,86.7166 115.5,82.5C 119.027,82.4963 122.527,82.1629 126,81.5C 128.667,82.1667 131.333,82.8333 134,83.5C 139.057,80.5668 144.557,78.5668 150.5,77.5C 150.863,76.8165 151.196,76.1499 151.5,75.5C 152.263,74.7321 153.263,74.2321 154.5,74C 159.5,73.3333 164.5,73.3333 169.5,74C 183.679,78.1205 197.679,82.2872 211.5,86.5 Z"/></g>
<g><path style="opacity:0.996" fill="#858db1" d="M 130.5,73.5 C 130.5,75.1667 130.5,76.8333 130.5,78.5C 128.194,78.9926 125.861,79.3259 123.5,79.5C 125.214,78.2616 127.214,77.595 129.5,77.5C 129.232,75.901 129.566,74.5676 130.5,73.5 Z"/></g>
<g><path style="opacity:0.933" fill="#7f7c7f" d="M 112.5,79.5 C 110.194,79.9926 107.861,80.3259 105.5,80.5C 107.713,78.6883 110.047,78.3549 112.5,79.5 Z"/></g>
<g><path style="opacity:0.953" fill="#7b90c1" d="M 123.5,79.5 C 121.485,80.9238 119.152,81.5905 116.5,81.5C 118.515,80.0762 120.848,79.4095 123.5,79.5 Z"/></g>
<g><path style="opacity:1" fill="#334594" d="M 151.5,75.5 C 151.196,76.1499 150.863,76.8165 150.5,77.5C 144.557,78.5668 139.057,80.5668 134,83.5C 131.333,82.8333 128.667,82.1667 126,81.5C 122.527,82.1629 119.027,82.4963 115.5,82.5C 115.785,86.7166 113.785,88.8832 109.5,89C 107.297,91.3722 104.963,93.5389 102.5,95.5C 104.22,92.2689 106.553,89.4356 109.5,87C 114.253,86.8957 115.586,84.729 113.5,80.5C 114.391,81.1098 115.391,81.4431 116.5,81.5C 119.152,81.5905 121.485,80.9238 123.5,79.5C 125.861,79.3259 128.194,78.9926 130.5,78.5C 132.126,78.9383 133.793,79.2716 135.5,79.5C 140.69,77.793 146.023,76.4597 151.5,75.5 Z"/></g>
<g><path style="opacity:1" fill="#585a5c" d="M 217.5,79.5 C 219.553,79.4021 221.22,80.0687 222.5,81.5C 220.219,81.9227 218.552,81.256 217.5,79.5 Z"/></g>
<g><path style="opacity:0.004" fill="#fefffe" d="M 46.5,81.5 C 47.8333,82.1667 47.8333,82.1667 46.5,81.5 Z"/></g>
<g><path style="opacity:0.039" fill="#a2a2a2" d="M 224.5,83.5 C 226.5,83.5 227.5,84.5 227.5,86.5C 226.167,85.8333 225.167,84.8333 224.5,83.5 Z"/></g>
<g><path style="opacity:0.004" fill="#fefffe" d="M 462.5,89.5 C 463.833,90.1667 463.833,90.1667 462.5,89.5 Z"/></g>
<g><path style="opacity:1" fill="#1c37a3" d="M 211.5,86.5 C 216.882,87.1849 220.882,89.8515 223.5,94.5C 223.666,98.5138 223.499,102.514 223,106.5C 221.097,108.441 220.264,110.774 220.5,113.5C 219.094,113.973 218.427,114.973 218.5,116.5C 213.125,116.828 207.792,116.495 202.5,115.5C 206.257,108.618 207.423,101.284 206,93.5C 199.982,87.2351 201.815,84.9018 211.5,86.5 Z"/></g>
<g><path style="opacity:0.004" fill="#fefffe" d="M 361.5,93.5 C 362.833,94.1667 362.833,94.1667 361.5,93.5 Z"/></g>
<g><path style="opacity:0.455" fill="#8d8d8e" d="M 95.5,90.5 C 95.4142,91.4959 95.7476,92.3292 96.5,93C 95.1509,93.7724 94.3176,94.9391 94,96.5C 93.5017,99.8168 93.335,103.15 93.5,106.5C 92.3567,103.024 92.1901,99.3575 93,95.5C 93.3736,93.5087 94.207,91.842 95.5,90.5 Z"/></g>
<g><path style="opacity:1" fill="#182666" d="M 223.5,94.5 C 226.213,101.341 225.213,107.674 220.5,113.5C 220.264,110.774 221.097,108.441 223,106.5C 223.499,102.514 223.666,98.5138 223.5,94.5 Z"/></g>
<g><path style="opacity:0.004" fill="#fefffe" d="M 412.5,105.5 C 413.833,106.167 413.833,106.167 412.5,105.5 Z"/></g>
<g><path style="opacity:0.655" fill="#767777" d="M 364.5,114.5 C 350.502,113.191 336.502,113.191 322.5,114.5C 323.952,113.698 325.618,113.198 327.5,113C 332.667,112.833 337.833,112.667 343,112.5C 350.402,112.294 357.568,112.961 364.5,114.5 Z"/></g>
<g><path style="opacity:0.004" fill="#fefffe" d="M 373.5,112.5 C 374.833,113.167 374.833,113.167 373.5,112.5 Z"/></g>
<g><path style="opacity:0.337" fill="#9b9d9b" d="M 365.5,114.5 C 369.078,114.549 372.411,115.215 375.5,116.5C 371.878,116.678 368.544,116.011 365.5,114.5 Z"/></g>
<g><path style="opacity:0.914" fill="#606260" d="M 315.5,115.5 C 313.485,116.924 311.152,117.59 308.5,117.5C 310.515,116.076 312.848,115.41 315.5,115.5 Z"/></g>
<g><path style="opacity:1" fill="#364787" d="M 220.5,113.5 C 219.962,115.117 219.629,116.784 219.5,118.5C 181.996,118.832 144.663,118.498 107.5,117.5C 144.67,117.832 181.67,117.498 218.5,116.5C 218.427,114.973 219.094,113.973 220.5,113.5 Z"/></g>
<g><path style="opacity:0.945" fill="#555655" d="M 308.5,117.5 C 305.495,119.277 302.162,120.277 298.5,120.5C 301.452,118.59 304.786,117.59 308.5,117.5 Z"/></g>
<g><path style="opacity:1" fill="#150800" d="M 216.5,126.5 C 180.5,126.5 144.5,126.5 108.5,126.5C 108.5,129.167 108.5,131.833 108.5,134.5C 107.795,131.772 107.128,128.939 106.5,126C 107.665,124.916 108.998,124.083 110.5,123.5C 145.458,124.327 180.458,124.827 215.5,125C 216.056,125.383 216.389,125.883 216.5,126.5 Z"/></g>
<g><path style="opacity:0.945" fill="#797979" d="M 398.5,124.5 C 400.754,125.124 402.421,126.457 403.5,128.5C 401.205,127.864 399.539,126.531 398.5,124.5 Z"/></g>
<g><path style="opacity:1" fill="#a78723" d="M 216.5,126.5 C 217.833,129.167 217.833,131.833 216.5,134.5C 216.5,132.167 216.5,129.833 216.5,127.5C 180.833,127.5 145.167,127.5 109.5,127.5C 109.5,129.833 109.5,132.167 109.5,134.5C 109.167,134.5 108.833,134.5 108.5,134.5C 108.5,131.833 108.5,129.167 108.5,126.5C 144.5,126.5 180.5,126.5 216.5,126.5 Z"/></g>
<g><path style="opacity:0.855" fill="#414141" d="M 226.5,121.5 C 225.579,143.795 225.579,166.129 226.5,188.5C 225.932,193.656 225.265,198.656 224.5,203.5C 224.333,176.831 224.5,150.165 225,123.5C 225.278,122.584 225.778,121.918 226.5,121.5 Z"/></g>
<g><path style="opacity:1" fill="#858ae2" d="M 367.5,124.5 C 373.5,126.5 379.5,128.5 385.5,130.5C 374.618,129.753 363.785,128.753 353,127.5C 338.067,128.192 323.567,131.026 309.5,136C 295.335,144.482 292.668,155.815 301.5,170C 330.831,170.5 360.165,170.667 389.5,170.5C 358.671,171.498 327.671,171.831 296.5,171.5C 294.153,164.472 290.986,157.805 287,151.5C 284.614,142.977 287.114,136.477 294.5,132C 318.103,122.453 342.436,119.953 367.5,124.5 Z"/></g>
<g><path style="opacity:1" fill="#ebb71b" d="M 216.5,134.5 C 180.833,134.5 145.167,134.5 109.5,134.5C 109.5,132.167 109.5,129.833 109.5,127.5C 145.167,127.5 180.833,127.5 216.5,127.5C 216.5,129.833 216.5,132.167 216.5,134.5 Z"/></g>
<g><path style="opacity:1" fill="#fdbe01" d="M 110.5,128.5 C 140.167,128.5 169.833,128.5 199.5,128.5C 199.5,129.833 199.5,131.167 199.5,132.5C 169.833,132.5 140.167,132.5 110.5,132.5C 110.5,131.167 110.5,129.833 110.5,128.5 Z"/></g>
<g><path style="opacity:1" fill="#11142b" d="M 367.5,124.5 C 373.657,125.095 379.657,126.428 385.5,128.5C 388.419,129.116 390.752,130.45 392.5,132.5C 390.167,131.833 387.833,131.167 385.5,130.5C 379.5,128.5 373.5,126.5 367.5,124.5 Z"/></g>
<g><path style="opacity:0.78" fill="#7e7e7e" d="M 403.5,128.5 C 404.906,128.973 405.573,129.973 405.5,131.5C 404.094,131.027 403.427,130.027 403.5,128.5 Z"/></g>
<g><path style="opacity:1" fill="#7074e9" d="M 385.5,130.5 C 387.833,131.167 390.167,131.833 392.5,132.5C 399.173,137.067 401.339,143.401 399,151.5C 395.807,157.886 392.64,164.22 389.5,170.5C 360.165,170.667 330.831,170.5 301.5,170C 292.668,155.815 295.335,144.482 309.5,136C 323.567,131.026 338.067,128.192 353,127.5C 363.785,128.753 374.618,129.753 385.5,130.5 Z"/></g>
<g><path style="opacity:0.557" fill="#7c7c7c" d="M 405.5,131.5 C 406.906,131.973 407.573,132.973 407.5,134.5C 406.094,134.027 405.427,133.027 405.5,131.5 Z"/></g>
<g><path style="opacity:0.004" fill="#fefffe" d="M 429.5,137.5 C 430.833,138.167 430.833,138.167 429.5,137.5 Z"/></g>
<g><path style="opacity:0.729" fill="#666664" d="M 407.5,134.5 C 409.074,136.102 409.741,138.102 409.5,140.5C 407.926,138.898 407.259,136.898 407.5,134.5 Z"/></g>
<g><path style="opacity:1" fill="#000016" d="M 110.5,142.5 C 145.996,141.502 181.663,141.168 217.5,141.5C 217.5,144.167 217.5,146.833 217.5,149.5C 216.167,149.5 214.833,149.5 213.5,149.5C 214.167,148.5 214.833,147.5 215.5,146.5C 216.434,145.432 216.768,144.099 216.5,142.5C 181.167,142.5 145.833,142.5 110.5,142.5 Z"/></g>
<g><path style="opacity:1" fill="#1d2958" d="M 110.5,142.5 C 145.833,142.5 181.167,142.5 216.5,142.5C 216.768,144.099 216.434,145.432 215.5,146.5C 215.5,145.5 215.5,144.5 215.5,143.5C 209.833,143.5 204.167,143.5 198.5,143.5C 168.814,142.841 139.481,143.508 110.5,145.5C 109.167,144.5 109.167,143.5 110.5,142.5 Z"/></g>
<g><path style="opacity:0.98" fill="#696966" d="M 278.5,135.5 C 277.693,141.464 277.36,147.464 277.5,153.5C 274.683,147.353 275.017,141.353 278.5,135.5 Z"/></g>
<g><path style="opacity:1" fill="#31469a" d="M 198.5,143.5 C 198.5,144.167 198.167,144.5 197.5,144.5C 174.181,145.259 150.848,145.759 127.5,146C 124.309,147.087 120.975,147.92 117.5,148.5C 116.754,149.736 116.421,151.07 116.5,152.5C 117.833,152.5 119.167,152.5 120.5,152.5C 120.5,151.5 120.5,150.5 120.5,149.5C 121.833,149.5 123.167,149.5 124.5,149.5C 124.703,151.39 124.037,152.89 122.5,154C 145.498,154.5 168.498,154.667 191.5,154.5C 198.487,155.035 205.154,154.035 211.5,151.5C 209.325,154.478 206.325,155.978 202.5,156C 175.167,156.667 147.833,156.667 120.5,156C 115.586,153.922 112.253,150.422 110.5,145.5C 139.481,143.508 168.814,142.841 198.5,143.5 Z"/></g>
<g><path style="opacity:1" fill="#334cb2" d="M 197.5,144.5 C 197.313,146.564 196.813,148.564 196,150.5C 194.333,151.733 192.833,153.067 191.5,154.5C 168.498,154.667 145.498,154.5 122.5,154C 124.037,152.89 124.703,151.39 124.5,149.5C 123.167,149.5 121.833,149.5 120.5,149.5C 120.5,150.5 120.5,151.5 120.5,152.5C 119.167,152.5 117.833,152.5 116.5,152.5C 116.421,151.07 116.754,149.736 117.5,148.5C 120.975,147.92 124.309,147.087 127.5,146C 150.848,145.759 174.181,145.259 197.5,144.5 Z"/></g>
<g><path style="opacity:1" fill="#1d37a2" d="M 198.5,143.5 C 204.167,143.5 209.833,143.5 215.5,143.5C 215.5,144.5 215.5,145.5 215.5,146.5C 214.833,147.5 214.167,148.5 213.5,149.5C 212.833,150.167 212.167,150.833 211.5,151.5C 205.154,154.035 198.487,155.035 191.5,154.5C 192.833,153.067 194.333,151.733 196,150.5C 196.813,148.564 197.313,146.564 197.5,144.5C 198.167,144.5 198.5,144.167 198.5,143.5 Z"/></g>
<g><path style="opacity:1" fill="#6768c6" d="M 355.5,156.5 C 356.146,154.844 356.813,153.177 357.5,151.5C 357.471,149.971 356.804,148.804 355.5,148C 347.507,147.5 339.507,147.334 331.5,147.5C 339.239,145.979 347.239,144.646 355.5,143.5C 356.5,146.167 357.5,148.833 358.5,151.5C 359.5,151.5 360.5,151.5 361.5,151.5C 360.795,154.543 358.795,156.21 355.5,156.5 Z"/></g>
<g><path style="opacity:1" fill="#02020d" d="M 331.5,147.5 C 339.507,147.334 347.507,147.5 355.5,148C 356.804,148.804 357.471,149.971 357.5,151.5C 356.813,153.177 356.146,154.844 355.5,156.5C 347.16,156.666 338.827,156.5 330.5,156C 327.553,152.657 327.887,149.824 331.5,147.5 Z"/></g>
<g><path style="opacity:0.004" fill="#fefffe" d="M 68.5,152.5 C 69.8333,153.167 69.8333,153.167 68.5,152.5 Z"/></g>
<g><path style="opacity:0.718" fill="#494a4b" d="M 99.5,121.5 C 100.117,121.611 100.617,121.944 101,122.5C 101.227,150.847 101.727,179.181 102.5,207.5C 101.71,206.391 101.21,205.058 101,203.5C 100.816,176.124 100.316,148.791 99.5,121.5 Z"/></g>
<g><path style="opacity:0.004" fill="#fefffe" d="M 93.5,163.5 C 94.8333,164.167 94.8333,164.167 93.5,163.5 Z"/></g>
<g><path style="opacity:1" fill="#f9cda3" d="M 215.5,159.5 C 216.496,172.656 216.829,185.99 216.5,199.5C 216.082,205.78 213.749,211.113 209.5,215.5C 210.741,211.311 211.741,206.978 212.5,202.5C 213.167,202.167 213.833,201.833 214.5,201.5C 215.499,188.851 215.832,176.184 215.5,163.5C 210.432,164.752 205.266,165.752 200,166.5C 199.667,179.5 199.333,192.5 199,205.5C 196.052,212.413 191.885,218.413 186.5,223.5C 190.12,224.293 193.787,224.293 197.5,223.5C 186.006,227.329 174.34,230.996 162.5,234.5C 150.821,231.162 139.155,227.662 127.5,224C 117.348,218.872 111.182,210.705 109,199.5C 108.333,185.5 108.333,171.5 109,157.5C 112.532,160.85 116.699,163.016 121.5,164C 148.833,164.667 176.167,164.667 203.5,164C 207.818,163.174 211.818,161.674 215.5,159.5 Z"/></g>
<g><path style="opacity:1" fill="#fbc58f" d="M 209.5,215.5 C 206.495,219.669 202.495,222.335 197.5,223.5C 193.787,224.293 190.12,224.293 186.5,223.5C 191.885,218.413 196.052,212.413 199,205.5C 199.333,192.5 199.667,179.5 200,166.5C 205.266,165.752 210.432,164.752 215.5,163.5C 215.832,176.184 215.499,188.851 214.5,201.5C 213.833,201.833 213.167,202.167 212.5,202.5C 211.741,206.978 210.741,211.311 209.5,215.5 Z"/></g>
<g><path style="opacity:0.004" fill="#fefffe" d="M 4.5,168.5 C 5.83333,169.167 5.83333,169.167 4.5,168.5 Z"/></g>
<g><path style="opacity:0.004" fill="#fefffe" d="M 1.5,172.5 C 2.83333,173.167 2.83333,173.167 1.5,172.5 Z"/></g>
<g><path style="opacity:0.004" fill="#fefffe" d="M 34.5,172.5 C 35.8333,173.167 35.8333,173.167 34.5,172.5 Z"/></g>
<g><path style="opacity:1" fill="#8f714f" d="M 215.5,159.5 C 215.56,158.957 215.893,158.624 216.5,158.5C 217.826,172.328 217.826,185.994 216.5,199.5C 216.829,185.99 216.496,172.656 215.5,159.5 Z"/></g>
<g><path style="opacity:1" fill="#444f51" d="M 382.5,182.5 C 356.167,181.167 329.833,181.167 303.5,182.5C 302.957,182.44 302.624,182.107 302.5,181.5C 329.5,180.167 356.5,180.167 383.5,181.5C 383.376,182.107 383.043,182.44 382.5,182.5 Z"/></g>
<g><path style="opacity:0.224" fill="#b7b7b7" d="M 288.5,176.5 C 289.487,181.305 289.821,186.305 289.5,191.5C 288.167,191.5 286.833,191.5 285.5,191.5C 286.209,190.596 287.209,190.263 288.5,190.5C 288.5,185.833 288.5,181.167 288.5,176.5 Z"/></g>
<g><path style="opacity:1" fill="#d9f7fa" d="M 303.5,182.5 C 329.833,181.167 356.167,181.167 382.5,182.5C 376.031,186.412 369.031,188.746 361.5,189.5C 352.195,190.354 342.861,190.687 333.5,190.5C 322.803,190.326 312.803,187.66 303.5,182.5 Z"/></g>
<g><path style="opacity:0.004" fill="#fefffe" d="M 444.5,184.5 C 445.833,185.167 445.833,185.167 444.5,184.5 Z"/></g>
<g><path style="opacity:0.498" fill="#878787" d="M 397.5,176.5 C 397.5,181.167 397.5,185.833 397.5,190.5C 399.099,190.232 400.432,190.566 401.5,191.5C 399.833,191.5 398.167,191.5 396.5,191.5C 396.179,186.305 396.513,181.305 397.5,176.5 Z"/></g>
<g><path style="opacity:1" fill="#506063" d="M 361.5,189.5 C 356.431,191.057 351.098,191.724 345.5,191.5C 341.319,191.499 337.319,191.166 333.5,190.5C 342.861,190.687 352.195,190.354 361.5,189.5 Z"/></g>
<g><path style="opacity:0.004" fill="#fefffe" d="M 423.5,195.5 C 424.833,196.167 424.833,196.167 423.5,195.5 Z"/></g>
<g><path style="opacity:1" fill="#fbc8b3" d="M 340.5,273.5 C 337.008,271.931 333.341,270.598 329.5,269.5C 328.72,266.899 327.054,264.899 324.5,263.5C 323.744,258.743 321.41,255.076 317.5,252.5C 316.257,249.681 314.757,247.014 313,244.5C 312.298,239.317 310.964,234.317 309,229.5C 308.579,217.992 308.412,206.658 308.5,195.5C 312.4,196.808 316.4,197.808 320.5,198.5C 325.269,199.889 330.269,200.556 335.5,200.5C 349.427,201.353 363.093,199.853 376.5,196C 380.232,194.539 383.732,192.706 387,190.5C 387.667,202.5 387.667,214.5 387,226.5C 383.793,248.693 371.959,264.193 351.5,273C 347.848,273.499 344.182,273.665 340.5,273.5 Z"/></g>
<g><path style="opacity:0.494" fill="#959496" d="M 274.5,197.5 C 274.573,199.027 273.906,200.027 272.5,200.5C 272.427,198.973 273.094,197.973 274.5,197.5 Z"/></g>
<g><path style="opacity:1" fill="#fad6c8" d="M 300.5,191.5 C 303.167,192.833 305.833,194.167 308.5,195.5C 308.412,206.658 308.579,217.992 309,229.5C 310.964,234.317 312.298,239.317 313,244.5C 314.757,247.014 316.257,249.681 317.5,252.5C 321.41,255.076 323.744,258.743 324.5,263.5C 327.054,264.899 328.72,266.899 329.5,269.5C 333.341,270.598 337.008,271.931 340.5,273.5C 323.467,269.652 311.301,259.652 304,243.5C 302.028,237.944 300.528,232.278 299.5,226.5C 299.172,214.655 299.505,202.988 300.5,191.5 Z"/></g>
<g><path style="opacity:1" fill="#483229" d="M 320.5,198.5 C 325.731,198.444 330.731,199.111 335.5,200.5C 330.269,200.556 325.269,199.889 320.5,198.5 Z"/></g>
<g><path style="opacity:0.533" fill="#83847f" d="M 412.5,198.5 C 413.906,198.973 414.573,199.973 414.5,201.5C 413.094,201.027 412.427,200.027 412.5,198.5 Z"/></g>
<g><path style="opacity:0.004" fill="#fefffe" d="M 472.5,201.5 C 473.833,202.167 473.833,202.167 472.5,201.5 Z"/></g>
<g><path style="opacity:0.976" fill="#555554" d="M 414.5,201.5 C 415.924,203.515 416.59,205.848 416.5,208.5C 415.076,206.485 414.41,204.152 414.5,201.5 Z"/></g>
<g><path style="opacity:1" fill="#f4b29b" d="M 399.5,201.5 C 404.184,202.354 406.517,205.187 406.5,210C 406.912,215.367 404.578,218.533 399.5,219.5C 398.184,216.913 397.517,213.913 397.5,210.5C 397.517,207.087 398.184,204.087 399.5,201.5 Z"/></g>
<g><path style="opacity:1" fill="#110b07" d="M 146.5,199.5 C 147.873,199.343 149.207,199.51 150.5,200C 154.863,205.681 160.53,207.681 167.5,206C 170.992,203.994 174.326,201.828 177.5,199.5C 182.426,201.999 182.759,205.165 178.5,209C 166.631,217.025 155.464,216.191 145,206.5C 144.167,203.829 144.667,201.496 146.5,199.5 Z"/></g>
<g><path style="opacity:1" fill="#61524c" d="M 300.5,191.5 C 299.505,202.988 299.172,214.655 299.5,226.5C 298.175,214.66 298.175,202.66 299.5,190.5C 300.107,190.624 300.44,190.957 300.5,191.5 Z"/></g>
<g><path style="opacity:0.027" fill="#a7a6a7" d="M 224.5,204.5 C 224.741,206.898 224.074,208.898 222.5,210.5C 222.595,208.214 223.262,206.214 224.5,204.5 Z"/></g>
<g><path style="opacity:1" fill="#7e6054" d="M 399.5,201.5 C 398.184,204.087 397.517,207.087 397.5,210.5C 397.517,213.913 398.184,216.913 399.5,219.5C 398.791,220.404 397.791,220.737 396.5,220.5C 396.5,213.833 396.5,207.167 396.5,200.5C 397.791,200.263 398.791,200.596 399.5,201.5 Z"/></g>
<g><path style="opacity:1" fill="#41403f" d="M 221.5,213.5 C 219.975,216.563 217.975,219.23 215.5,221.5C 216.035,218.864 217.368,216.697 219.5,215C 218.044,214.577 217.544,213.744 218,212.5C 219.011,213.337 220.178,213.67 221.5,213.5 Z"/></g>
<g><path style="opacity:1" fill="#e4bcaa" d="M 286.5,200.5 C 287.5,200.5 288.5,200.5 289.5,200.5C 289.5,207.167 289.5,213.833 289.5,220.5C 287.738,220.643 286.071,220.309 284.5,219.5C 277.357,212.313 278.024,205.98 286.5,200.5 Z"/></g>
<g><path style="opacity:0.004" fill="#fefffe" d="M 80.5,217.5 C 81.8333,218.167 81.8333,218.167 80.5,217.5 Z"/></g>
<g><path style="opacity:0.004" fill="#fefffe" d="M 26.5,219.5 C 27.8333,220.167 27.8333,220.167 26.5,219.5 Z"/></g>
<g><path style="opacity:0.004" fill="#fefffe" d="M 421.5,219.5 C 422.833,220.167 422.833,220.167 421.5,219.5 Z"/></g>
<g><path style="opacity:0.004" fill="#fefffe" d="M 15.5,224.5 C 16.8333,225.167 16.8333,225.167 15.5,224.5 Z"/></g>
<g><path style="opacity:0.004" fill="#fefffe" d="M 71.5,228.5 C 72.8333,229.167 72.8333,229.167 71.5,228.5 Z"/></g>
<g><path style="opacity:0.459" fill="#8d8d8d" d="M 117.5,227.5 C 119.027,227.427 120.027,228.094 120.5,229.5C 118.973,229.573 117.973,228.906 117.5,227.5 Z"/></g>
<g><path style="opacity:0.569" fill="#818181" d="M 284.5,229.5 C 286.5,229.5 288.5,229.5 290.5,229.5C 290.5,230.5 290.5,231.5 290.5,232.5C 288.639,231.158 286.639,230.158 284.5,229.5 Z"/></g>
<g><path style="opacity:1" fill="#9dddf6" d="M 194.5,233.5 C 198.349,237.19 201.683,241.357 204.5,246C 195.632,251.698 186.632,257.198 177.5,262.5C 174.942,256.338 172.275,250.171 169.5,244C 169.905,243.055 170.572,242.388 171.5,242C 179.447,239.632 187.114,236.799 194.5,233.5 Z"/></g>
<g><path style="opacity:1" fill="#9edef7" d="M 130.5,233.5 C 138.774,237.637 147.441,240.637 156.5,242.5C 154.401,249.369 151.734,256.035 148.5,262.5C 139.388,257.23 130.388,251.73 121.5,246C 124.387,241.716 127.387,237.549 130.5,233.5 Z"/></g>
<g><path style="opacity:0.702" fill="#7c7c7c" d="M 211.5,241.5 C 212.906,241.973 213.573,242.973 213.5,244.5C 212.094,244.027 211.427,243.027 211.5,241.5 Z"/></g>
<g><path style="opacity:1" fill="#100907" d="M 331.5,245.5 C 335.204,246.995 339.038,248.329 343,249.5C 346.073,249.547 348.573,248.38 350.5,246C 356.553,245.056 358.72,247.556 357,253.5C 347.24,261.689 337.907,261.356 329,252.5C 328.333,251.167 328.333,249.833 329,248.5C 330.045,247.627 330.878,246.627 331.5,245.5 Z"/></g>
<g><path style="opacity:1" fill="#c79f1f" d="M 167.5,260.5 C 166.883,260.611 166.383,260.944 166,261.5C 165.624,258.99 164.79,256.657 163.5,254.5C 162.479,256.188 161.145,257.521 159.5,258.5C 159.989,255.533 161.155,252.867 163,250.5C 165.318,253.469 166.818,256.802 167.5,260.5 Z"/></g>
<g><path style="opacity:1" fill="#d4eff9" d="M 238.5,259.5 C 243.429,260.967 248.096,262.967 252.5,265.5C 251.489,267.402 251.322,269.402 252,271.5C 257.874,276.579 261.708,282.912 263.5,290.5C 261.469,292.522 259.135,294.189 256.5,295.5C 249.181,287.004 240.181,281.171 229.5,278C 222.665,276.316 217.998,278.816 215.5,285.5C 204.681,278.593 193.015,273.593 180.5,270.5C 190.286,263.886 200.453,257.886 211,252.5C 217.776,255.471 224.609,258.305 231.5,261C 234.171,261.833 236.504,261.333 238.5,259.5 Z"/></g>
<g><path style="opacity:1" fill="#d4eef8" d="M 112.5,252.5 C 114.655,252.372 116.655,252.872 118.5,254C 127.5,259.5 136.5,265 145.5,270.5C 132.806,273.217 121.139,278.217 110.5,285.5C 107.729,278.781 102.729,276.281 95.5,278C 85.745,281.079 77.5783,286.579 71,294.5C 66.4774,301.545 62.4774,308.878 59,316.5C 59.8221,306.422 61.4887,296.422 64,286.5C 66.805,278.713 71.6383,272.547 78.5,268C 90.0234,262.897 101.357,257.731 112.5,252.5 Z"/></g>
<g><path style="opacity:1" fill="#f0b710" d="M 167.5,260.5 C 169.072,263.215 170.072,266.215 170.5,269.5C 165.5,269.5 160.5,269.5 155.5,269.5C 156.459,265.617 157.792,261.95 159.5,258.5C 161.145,257.521 162.479,256.188 163.5,254.5C 164.79,256.657 165.624,258.99 166,261.5C 166.383,260.944 166.883,260.611 167.5,260.5 Z"/></g>
<g><path style="opacity:0.004" fill="#fefffe" d="M 274.5,267.5 C 275.833,268.167 275.833,268.167 274.5,267.5 Z"/></g>
<g><path style="opacity:0.682" fill="#848485" d="M 310.5,269.5 C 312.027,269.427 313.027,270.094 313.5,271.5C 311.973,271.573 310.973,270.906 310.5,269.5 Z"/></g>
<g><path style="opacity:0.804" fill="#8c8d8e" d="M 373.5,271.5 C 374.167,272.167 374.833,272.833 375.5,273.5C 374.325,273.719 373.325,273.386 372.5,272.5C 372.624,271.893 372.957,271.56 373.5,271.5 Z"/></g>
<g><path style="opacity:1" fill="#85829d" d="M 235.5,347.5 C 235.737,346.209 235.404,345.209 234.5,344.5C 235.537,342.262 235.703,339.929 235,337.5C 223.644,308.985 202.811,291.985 172.5,286.5C 170.626,286.39 169.126,287.056 168,288.5C 167.206,306.865 167.373,325.198 168.5,343.5C 164.833,342.167 161.167,342.167 157.5,343.5C 158.64,325.21 158.807,306.877 158,288.5C 156.701,287.02 155.034,286.354 153,286.5C 122.999,292.168 102.333,309.168 91,337.5C 90.5045,339.473 90.3379,341.473 90.5,343.5C 87.1667,342.167 83.8333,342.167 80.5,343.5C 82.6564,334.023 86.323,325.19 91.5,317C 97.6229,316.356 102.456,313.522 106,308.5C 107.984,303.531 110.151,298.698 112.5,294C 146.091,272.178 179.758,272.178 213.5,294C 215.89,298.708 218.056,303.541 220,308.5C 223.544,313.522 228.377,316.356 234.5,317C 235.46,318.419 236.293,319.919 237,321.5C 237.309,330.35 236.809,339.017 235.5,347.5 Z"/></g>
<g><path style="opacity:1" fill="#666666" d="M 58.5,278.5 C 58.8337,281.491 57.8337,283.824 55.5,285.5C 55.9348,282.843 56.9348,280.509 58.5,278.5 Z"/></g>
<g><path style="opacity:0.988" fill="#5b5b5b" d="M 302.5,281.5 C 302.586,282.496 302.252,283.329 301.5,284C 298.854,284.497 296.187,284.664 293.5,284.5C 296.516,283.817 299.516,282.817 302.5,281.5 Z"/></g>
<g><path style="opacity:0.659" fill="#858585" d="M 384.5,282.5 C 387.373,282.802 390.039,283.469 392.5,284.5C 389.447,284.889 386.78,284.223 384.5,282.5 Z"/></g>
<g><path style="opacity:1" fill="#efae98" d="M 355.5,287.5 C 355.565,287.062 355.399,286.728 355,286.5C 354.25,287.126 353.416,287.626 352.5,288C 345.316,288.136 338.316,288.303 331.5,288.5C 329.727,286.4 329.394,284.066 330.5,281.5C 339.461,284.06 348.461,284.06 357.5,281.5C 357.405,283.786 356.738,285.786 355.5,287.5 Z"/></g>
<g><path style="opacity:0.776" fill="#858383" d="M 269.5,282.5 C 270.738,284.214 271.405,286.214 271.5,288.5C 269.926,286.898 269.259,284.898 269.5,282.5 Z"/></g>
<g><path style="opacity:1" fill="#090b0d" d="M 157.5,343.5 C 156.688,344.993 155.355,345.66 153.5,345.5C 151.018,345.89 149.685,344.89 149.5,342.5C 150.454,326.869 150.787,311.202 150.5,295.5C 124.298,301.37 106.964,317.036 98.5,342.5C 98.3152,344.89 96.9818,345.89 94.5,345.5C 92.6455,345.66 91.3121,344.993 90.5,343.5C 90.3379,341.473 90.5045,339.473 91,337.5C 102.333,309.168 122.999,292.168 153,286.5C 155.034,286.354 156.701,287.02 158,288.5C 158.807,306.877 158.64,325.21 157.5,343.5 Z"/></g>
<g><path style="opacity:1" fill="#08090c" d="M 234.5,344.5 C 231.988,345.867 229.655,345.534 227.5,343.5C 222.264,324.092 210.597,309.926 192.5,301C 187.696,298.787 182.696,297.287 177.5,296.5C 177.44,295.957 177.107,295.624 176.5,295.5C 175.174,309.661 175.174,323.661 176.5,337.5C 176.5,339.5 176.5,341.5 176.5,343.5C 175.688,344.993 174.355,345.66 172.5,345.5C 170.645,345.66 169.312,344.993 168.5,343.5C 167.373,325.198 167.206,306.865 168,288.5C 169.126,287.056 170.626,286.39 172.5,286.5C 202.811,291.985 223.644,308.985 235,337.5C 235.703,339.929 235.537,342.262 234.5,344.5 Z"/></g>
<g><path style="opacity:1" fill="#f3caa3" d="M 224.5,285.5 C 235.088,287.123 243.422,292.29 249.5,301C 238.961,312.172 230.461,311.005 224,297.5C 223.238,293.413 223.404,289.413 224.5,285.5 Z"/></g>
<g><path style="opacity:1" fill="#414242" d="M 287.5,285.5 C 282.939,288.018 277.939,289.018 272.5,288.5C 277.273,286.978 282.273,285.978 287.5,285.5 Z"/></g>
<g><path style="opacity:1" fill="#f6c5b1" d="M 355.5,287.5 C 353.209,294.094 349.042,299.094 343,302.5C 337.493,299.164 333.659,294.497 331.5,288.5C 338.316,288.303 345.316,288.136 352.5,288C 353.416,287.626 354.25,287.126 355,286.5C 355.399,286.728 355.565,287.062 355.5,287.5 Z"/></g>
<g><path style="opacity:1" fill="#494a4a" d="M 399.5,285.5 C 404.375,286.085 409.042,287.085 413.5,288.5C 411.599,288.433 409.766,288.767 408,289.5C 406.278,289.389 406.112,288.889 407.5,288C 404.478,287.902 401.811,287.068 399.5,285.5 Z"/></g>
<g><path style="opacity:1" fill="#d6f4f7" d="M 366.5,281.5 C 374.043,282.703 378.043,287.203 378.5,295C 375.857,304.122 371.524,312.289 365.5,319.5C 360.975,315.808 356.308,312.308 351.5,309C 360.801,302.235 365.801,293.069 366.5,281.5 Z"/></g>
<g><path style="opacity:1" fill="#f5cca3" d="M 97.5,285.5 C 101.641,285.576 103.308,287.743 102.5,292C 99.868,309.395 91.368,312.895 77,302.5C 77.6384,299.094 79.4717,296.26 82.5,294C 86.9921,290.128 91.9921,287.294 97.5,285.5 Z"/></g>
<g><path style="opacity:1" fill="#7d7fc2" d="M 300.5,304.5 C 299.272,303.694 298.272,302.694 297.5,301.5C 297.714,299.856 297.38,298.356 296.5,297C 291.011,296.016 285.845,296.849 281,299.5C 280.505,301.473 280.338,303.473 280.5,305.5C 280.167,305.5 279.833,305.5 279.5,305.5C 279.5,302.5 279.5,299.5 279.5,296.5C 285.868,295.657 292.202,294.657 298.5,293.5C 298.414,297.319 299.081,300.985 300.5,304.5 Z"/></g>
<g><path style="opacity:1" fill="#565757" d="M 54.5,291.5 C 54.6641,294.187 54.4974,296.854 54,299.5C 53.7216,300.416 53.2216,301.082 52.5,301.5C 52.7526,297.96 53.4192,294.627 54.5,291.5 Z"/></g>
<g><path style="opacity:1" fill="#d6f1fc" d="M 149.5,342.5 C 132.5,342.5 115.5,342.5 98.5,342.5C 106.964,317.036 124.298,301.37 150.5,295.5C 150.787,311.202 150.454,326.869 149.5,342.5 Z"/></g>
<g><path style="opacity:1" fill="#8990ef" d="M 297.5,301.5 C 291.697,302.327 286.031,303.66 280.5,305.5C 280.338,303.473 280.505,301.473 281,299.5C 285.845,296.849 291.011,296.016 296.5,297C 297.38,298.356 297.714,299.856 297.5,301.5 Z"/></g>
<g><path style="opacity:1" fill="#d7f1fc" d="M 177.5,296.5 C 182.696,297.287 187.696,298.787 192.5,301C 210.597,309.926 222.264,324.092 227.5,343.5C 210.47,342.179 193.47,342.179 176.5,343.5C 176.5,341.5 176.5,339.5 176.5,337.5C 176.171,323.656 176.504,309.99 177.5,296.5 Z"/></g>
<g><path style="opacity:1" fill="#a7b9c0" d="M 177.5,296.5 C 176.504,309.99 176.171,323.656 176.5,337.5C 175.174,323.661 175.174,309.661 176.5,295.5C 177.107,295.624 177.44,295.957 177.5,296.5 Z"/></g>
<g><path style="opacity:1" fill="#7074ea" d="M 297.5,301.5 C 298.272,302.694 299.272,303.694 300.5,304.5C 305.16,313.152 309.826,321.818 314.5,330.5C 314.5,331.5 314.5,332.5 314.5,333.5C 318.747,333.806 322.747,333.139 326.5,331.5C 324.944,339.987 324.111,349.32 324,359.5C 323.164,367.315 321.498,374.982 319,382.5C 318.501,386.821 318.334,391.154 318.5,395.5C 305.833,395.5 293.167,395.5 280.5,395.5C 280.5,365.5 280.5,335.5 280.5,305.5C 286.031,303.66 291.697,302.327 297.5,301.5 Z"/></g>
<g><path style="opacity:1" fill="#daf4f7" d="M 315.5,281.5 C 316.833,281.5 318.167,281.5 319.5,281.5C 320.694,292.721 325.694,301.888 334.5,309C 329.979,313.022 325.312,316.856 320.5,320.5C 316.144,313.789 312.311,306.789 309,299.5C 308.333,296.167 308.333,292.833 309,289.5C 311.001,286.669 313.167,284.003 315.5,281.5 Z"/></g>
<g><path style="opacity:1" fill="#7879cf" d="M 399.5,296.5 C 401.833,296.5 404.167,296.5 406.5,296.5C 406.5,311.833 406.5,327.167 406.5,342.5C 397.827,342.334 389.16,342.5 380.5,343C 379.244,343.417 378.577,344.25 378.5,345.5C 378.167,345.5 377.833,345.5 377.5,345.5C 377.33,344.178 377.663,343.011 378.5,342C 387.525,341.716 396.525,341.216 405.5,340.5C 405.5,326.5 405.5,312.5 405.5,298.5C 403.102,298.741 401.102,298.074 399.5,296.5 Z"/></g>
<g><path style="opacity:1" fill="#d8f7fb" d="M 444.5,389.5 C 444.5,391.5 444.5,393.5 444.5,395.5C 435.5,395.5 426.5,395.5 417.5,395.5C 417.568,387.79 417.568,380.29 417.5,373C 419.708,372.809 421.708,372.309 423.5,371.5C 424.79,370.942 425.623,369.942 426,368.5C 426.667,360.833 426.667,353.167 426,345.5C 423.454,342.814 420.287,341.814 416.5,342.5C 416.167,328.151 416.501,313.818 417.5,299.5C 429.299,304.8 436.466,313.8 439,326.5C 441.22,347.472 443.053,368.472 444.5,389.5 Z"/></g>
<g><path style="opacity:1" fill="#e9f8f8" d="M 267.5,300.5 C 269.423,304.029 270.089,308.029 269.5,312.5C 268.167,313.933 266.667,315.267 265,316.5C 261.955,322.594 259.455,328.927 257.5,335.5C 255.786,355.55 254.119,375.55 252.5,395.5C 248.833,395.5 245.167,395.5 241.5,395.5C 242.677,371.414 244.844,347.414 248,323.5C 250.764,312.623 257.264,304.956 267.5,300.5 Z"/></g>
<g><path style="opacity:1" fill="#6769c6" d="M 399.5,296.5 C 395.833,296.5 392.167,296.5 388.5,296.5C 388.5,297.5 388.5,298.5 388.5,299.5C 391.249,299.726 393.916,299.393 396.5,298.5C 397.386,299.325 397.719,300.325 397.5,301.5C 394.5,301.5 391.5,301.5 388.5,301.5C 386.659,305.679 384.992,310.013 383.5,314.5C 379.98,318.205 377.48,322.538 376,327.5C 374.961,328.71 373.794,329.71 372.5,330.5C 373.179,327.293 374.346,324.293 376,321.5C 380.174,315.154 383.841,308.488 387,301.5C 387.497,298.854 387.664,296.187 387.5,293.5C 391.747,293.923 395.747,294.923 399.5,296.5 Z"/></g>
<g><path style="opacity:0.004" fill="#fefffe" d="M 466.5,313.5 C 467.833,314.167 467.833,314.167 466.5,313.5 Z"/></g>
<g><path style="opacity:1" fill="#585757" d="M 51.5,309.5 C 51.6641,312.187 51.4974,314.854 51,317.5C 50.7216,318.416 50.2216,319.082 49.5,319.5C 49.7526,315.96 50.4192,312.627 51.5,309.5 Z"/></g>
<g><path style="opacity:0.004" fill="#fefffe" d="M 25.5,317.5 C 26.8333,318.167 26.8333,318.167 25.5,317.5 Z"/></g>
<g><path style="opacity:0.945" fill="#656565" d="M 445.5,314.5 C 447.483,317.799 448.483,321.466 448.5,325.5C 446.926,322.093 445.926,318.427 445.5,314.5 Z"/></g>
<g><path style="opacity:1" fill="#d8f9fc" d="M 269.5,312.5 C 269.5,340.5 269.5,368.5 269.5,396.5C 259.985,396.827 250.652,396.494 241.5,395.5C 245.167,395.5 248.833,395.5 252.5,395.5C 254.119,375.55 255.786,355.55 257.5,335.5C 259.455,328.927 261.955,322.594 265,316.5C 266.667,315.267 268.167,313.933 269.5,312.5 Z"/></g>
<g><path style="opacity:1" fill="#4e595c" d="M 267.5,300.5 C 268.209,299.596 269.209,299.263 270.5,299.5C 270.832,332.004 270.498,364.338 269.5,396.5C 269.5,368.5 269.5,340.5 269.5,312.5C 270.089,308.029 269.423,304.029 267.5,300.5 Z"/></g>
<g><path style="opacity:1" fill="#ecc8a5" d="M 71.5,309.5 C 75.0585,311.447 78.7252,313.113 82.5,314.5C 81.4764,317.555 80.1431,320.555 78.5,323.5C 73.034,324.728 70.034,322.395 69.5,316.5C 69.8864,314.068 70.5531,311.734 71.5,309.5 Z"/></g>
<g><path style="opacity:1" fill="#f4ce5b" d="M 350.5,326.5 C 345.93,327.441 341.263,327.774 336.5,327.5C 335.464,325.572 334.964,323.572 335,321.5C 337.26,318.626 340.093,316.626 343.5,315.5C 348.956,317.547 351.289,321.214 350.5,326.5 Z"/></g>
<g><path style="opacity:1" fill="#85733a" d="M 350.5,326.5 C 348.603,327.805 346.269,328.471 343.5,328.5C 340.975,328.497 338.641,328.163 336.5,327.5C 341.263,327.774 345.93,327.441 350.5,326.5 Z"/></g>
<g><path style="opacity:1" fill="#a1def5" d="M 72.5,342.5 C 66.4093,342.211 60.4093,342.545 54.5,343.5C 57.3865,337.396 60.5531,331.396 64,325.5C 66.5659,329.232 70.0659,331.566 74.5,332.5C 73.8333,335.833 73.1667,339.167 72.5,342.5 Z"/></g>
<g><path style="opacity:1" fill="#7074e9" d="M 399.5,296.5 C 401.102,298.074 403.102,298.741 405.5,298.5C 405.5,312.5 405.5,326.5 405.5,340.5C 396.525,341.216 387.525,341.716 378.5,342C 377.663,343.011 377.33,344.178 377.5,345.5C 377.5,353.5 377.5,361.5 377.5,369.5C 377.33,370.822 377.663,371.989 378.5,373C 387.494,373.5 396.494,373.666 405.5,373.5C 405.5,380.5 405.5,387.5 405.5,394.5C 392.252,395.118 379.252,394.452 366.5,392.5C 365.752,387.515 365.085,382.515 364.5,377.5C 363.979,373.519 363.646,369.519 363.5,365.5C 362.446,358.313 362.446,351.146 363.5,344C 361.693,341.49 360.693,338.656 360.5,335.5C 360.556,333.36 361.223,331.694 362.5,330.5C 365.833,333.167 369.167,333.167 372.5,330.5C 373.794,329.71 374.961,328.71 376,327.5C 377.48,322.538 379.98,318.205 383.5,314.5C 384.992,310.013 386.659,305.679 388.5,301.5C 391.5,301.5 394.5,301.5 397.5,301.5C 397.719,300.325 397.386,299.325 396.5,298.5C 393.916,299.393 391.249,299.726 388.5,299.5C 388.5,298.5 388.5,297.5 388.5,296.5C 392.167,296.5 395.833,296.5 399.5,296.5 Z"/></g>
<g><path style="opacity:1" fill="#515253" d="M 48.5,328.5 C 48.7076,333.635 48.0409,338.635 46.5,343.5C 45.8761,343.083 45.5427,342.416 45.5,341.5C 46.0464,336.932 47.0464,332.599 48.5,328.5 Z"/></g>
<g><path style="opacity:1" fill="#cf9f3f" d="M 351.5,359.5 C 350.839,358.282 350.172,356.949 349.5,355.5C 348.895,350.423 348.062,345.423 347,340.5C 344.281,339.556 341.448,339.223 338.5,339.5C 338.435,342.428 337.768,345.095 336.5,347.5C 336.216,344.223 336.549,341.057 337.5,338C 341.486,337.501 345.486,337.334 349.5,337.5C 350.331,344.817 350.998,352.151 351.5,359.5 Z"/></g>
<g><path style="opacity:1" fill="#20244d" d="M 327.5,330.5 C 328.162,332.304 328.495,334.304 328.5,336.5C 328.602,340.117 327.935,343.45 326.5,346.5C 327.194,341.195 327.528,335.862 327.5,330.5 Z"/></g>
<g><path style="opacity:1" fill="#0c0e3c" d="M 406.5,342.5 C 398.677,343.329 390.677,343.829 382.5,344C 381.099,344.41 379.766,344.91 378.5,345.5C 378.577,344.25 379.244,343.417 380.5,343C 389.16,342.5 397.827,342.334 406.5,342.5 Z"/></g>
<g><path style="opacity:1" fill="#6364b7" d="M 279.5,305.5 C 279.833,305.5 280.167,305.5 280.5,305.5C 280.5,335.5 280.5,365.5 280.5,395.5C 293.167,395.5 305.833,395.5 318.5,395.5C 318.334,391.154 318.501,386.821 319,382.5C 321.498,374.982 323.164,367.315 324,359.5C 324.111,349.32 324.944,339.987 326.5,331.5C 322.747,333.139 318.747,333.806 314.5,333.5C 314.5,332.5 314.5,331.5 314.5,330.5C 315.667,331.815 317.167,332.481 319,332.5C 321.588,331.432 324.088,330.099 326.5,328.5C 327.298,328.957 327.631,329.624 327.5,330.5C 327.528,335.862 327.194,341.195 326.5,346.5C 324.597,363.249 322.263,379.916 319.5,396.5C 306.167,396.5 292.833,396.5 279.5,396.5C 279.5,366.167 279.5,335.833 279.5,305.5 Z"/></g>
<g><path style="opacity:0.004" fill="#fefffe" d="M 163.5,351.5 C 164.833,352.167 164.833,352.167 163.5,351.5 Z"/></g>
<g><path style="opacity:1" fill="#fdba35" d="M 351.5,359.5 C 352.201,371.211 353.201,382.877 354.5,394.5C 346.826,394.666 339.159,394.5 331.5,394C 332.804,393.196 333.471,392.029 333.5,390.5C 332.698,387.551 332.364,384.551 332.5,381.5C 333.08,377.19 333.414,372.857 333.5,368.5C 333.5,368.167 333.5,367.833 333.5,367.5C 334.972,363.081 335.638,358.414 335.5,353.5C 335.205,351.265 335.539,349.265 336.5,347.5C 337.768,345.095 338.435,342.428 338.5,339.5C 341.448,339.223 344.281,339.556 347,340.5C 348.062,345.423 348.895,350.423 349.5,355.5C 350.172,356.949 350.839,358.282 351.5,359.5 Z"/></g>
<g><path style="opacity:1" fill="#696cc5" d="M 362.5,330.5 C 361.223,331.694 360.556,333.36 360.5,335.5C 360.693,338.656 361.693,341.49 363.5,344C 362.446,351.146 362.446,358.313 363.5,365.5C 362.833,363.5 362.167,361.5 361.5,359.5C 359.412,349.615 358.578,339.615 359,329.5C 360.579,328.2 361.745,328.534 362.5,330.5 Z"/></g>
<g><path style="opacity:0.004" fill="#fefffe" d="M 13.5,354.5 C 14.8333,355.167 14.8333,355.167 13.5,354.5 Z"/></g>
<g><path style="opacity:0.004" fill="#fefffe" d="M 30.5,354.5 C 31.8333,355.167 31.8333,355.167 30.5,354.5 Z"/></g>
<g><path style="opacity:1" fill="#a07a2d" d="M 335.5,353.5 C 335.638,358.414 334.972,363.081 333.5,367.5C 333.362,362.586 334.028,357.919 335.5,353.5 Z"/></g>
<g><path style="opacity:1" fill="#e3cc6e" d="M 387.5,352.5 C 397.167,352.5 406.833,352.5 416.5,352.5C 416.5,355.833 416.5,359.167 416.5,362.5C 406.833,362.5 397.167,362.5 387.5,362.5C 387.5,359.167 387.5,355.833 387.5,352.5 Z"/></g>
<g><path style="opacity:1" fill="#fbd351" d="M 414.5,357.5 C 414.5,358.5 414.5,359.5 414.5,360.5C 406.833,360.5 399.167,360.5 391.5,360.5C 391.5,359.5 391.5,358.5 391.5,357.5C 399.167,357.5 406.833,357.5 414.5,357.5 Z"/></g>
<g><path style="opacity:1" fill="#fced66" d="M 414.5,357.5 C 406.833,357.5 399.167,357.5 391.5,357.5C 391.5,358.5 391.5,359.5 391.5,360.5C 390.5,360.5 389.5,360.5 388.5,360.5C 388.5,358.167 388.5,355.833 388.5,353.5C 397.173,353.334 405.84,353.5 414.5,354C 415.791,355.292 415.791,356.458 414.5,357.5 Z"/></g>
<g><path style="opacity:1" fill="#1c2250" d="M 361.5,359.5 C 362.167,361.5 362.833,363.5 363.5,365.5C 363.646,369.519 363.979,373.519 364.5,377.5C 362.238,371.835 361.238,365.835 361.5,359.5 Z"/></g>
<g><path style="opacity:1" fill="#7577d2" d="M 377.5,369.5 C 378.5,369.833 379.167,370.5 379.5,371.5C 388.318,372.493 397.318,372.827 406.5,372.5C 406.5,380.5 406.5,388.5 406.5,396.5C 393.087,396.814 379.754,396.481 366.5,395.5C 366.5,394.5 366.5,393.5 366.5,392.5C 379.252,394.452 392.252,395.118 405.5,394.5C 405.5,387.5 405.5,380.5 405.5,373.5C 396.494,373.666 387.494,373.5 378.5,373C 377.663,371.989 377.33,370.822 377.5,369.5 Z"/></g>
<g><path style="opacity:0.004" fill="#fefffe" d="M 19.5,385.5 C 20.8333,386.167 20.8333,386.167 19.5,385.5 Z"/></g>
<g><path style="opacity:1" fill="#252664" d="M 379.5,371.5 C 388.833,371.5 398.167,371.5 407.5,371.5C 407.826,380.017 407.493,388.35 406.5,396.5C 406.5,388.5 406.5,380.5 406.5,372.5C 397.318,372.827 388.318,372.493 379.5,371.5 Z"/></g>
<g><path style="opacity:1" fill="#c0d2d5" d="M 423.5,371.5 C 421.708,372.309 419.708,372.809 417.5,373C 417.568,380.29 417.568,387.79 417.5,395.5C 426.5,395.5 435.5,395.5 444.5,395.5C 444.5,393.5 444.5,391.5 444.5,389.5C 445.468,391.607 445.802,393.941 445.5,396.5C 435.833,396.5 426.167,396.5 416.5,396.5C 416.5,388.167 416.5,379.833 416.5,371.5C 418.833,371.5 421.167,371.5 423.5,371.5 Z"/></g>
<g><path style="opacity:0.004" fill="#fefffe" d="M 11.5,392.5 C 12.8333,393.167 12.8333,393.167 11.5,392.5 Z"/></g>
<g><path style="opacity:1" fill="#e7b243" d="M 351.5,359.5 C 353.334,367.954 354.667,376.62 355.5,385.5C 355.5,388.833 355.5,392.167 355.5,395.5C 347.167,395.5 338.833,395.5 330.5,395.5C 330.69,390.63 331.356,385.964 332.5,381.5C 332.364,384.551 332.698,387.551 333.5,390.5C 333.471,392.029 332.804,393.196 331.5,394C 339.159,394.5 346.826,394.666 354.5,394.5C 353.201,382.877 352.201,371.211 351.5,359.5 Z"/></g>
<g><path style="opacity:0.004" fill="#fefffe" d="M 142.5,395.5 C 143.833,396.167 143.833,396.167 142.5,395.5 Z"/></g>
<g><path style="opacity:1" fill="#b99643" d="M 333.5,368.5 C 333.414,372.857 333.08,377.19 332.5,381.5C 331.356,385.964 330.69,390.63 330.5,395.5C 338.833,395.5 347.167,395.5 355.5,395.5C 355.5,392.167 355.5,388.833 355.5,385.5C 356.451,386.919 356.784,388.585 356.5,390.5C 356.5,392.5 356.5,394.5 356.5,396.5C 347.5,396.5 338.5,396.5 329.5,396.5C 329.865,386.895 331.198,377.561 333.5,368.5 Z"/></g>
<g><path style="opacity:1" fill="#301c01" d="M 356.5,390.5 C 358.097,393.794 357.597,396.794 355,399.5C 354.5,399 354,398.5 353.5,398C 345.323,397.829 337.323,397.329 329.5,396.5C 338.5,396.5 347.5,396.5 356.5,396.5C 356.5,394.5 356.5,392.5 356.5,390.5 Z"/></g>
<g><path style="opacity:1" fill="#0e0f3c" d="M 366.5,395.5 C 379.754,396.481 393.087,396.814 406.5,396.5C 400.009,397.166 393.342,397.5 386.5,397.5C 379.465,397.497 372.798,396.83 366.5,395.5 Z"/></g>
<g><path style="opacity:0.004" fill="#fefffe" d="M 218.5,411.5 C 219.833,412.167 219.833,412.167 218.5,411.5 Z"/></g>
<g><path style="opacity:0.004" fill="#fefffe" d="M 252.5,414.5 C 253.833,415.167 253.833,415.167 252.5,414.5 Z"/></g>
<g><path style="opacity:0.004" fill="#fefffe" d="M 123.5,415.5 C 124.833,416.167 124.833,416.167 123.5,415.5 Z"/></g>
<g><path style="opacity:0.004" fill="#fefffe" d="M 152.5,415.5 C 153.833,416.167 153.833,416.167 152.5,415.5 Z"/></g>
<g><path style="opacity:0.004" fill="#fefffe" d="M 52.5,423.5 C 53.8333,424.167 53.8333,424.167 52.5,423.5 Z"/></g>
<g><path style="opacity:0.004" fill="#fefffe" d="M 477.5,429.5 C 478.833,430.167 478.833,430.167 477.5,429.5 Z"/></g>
<g><path style="opacity:0.004" fill="#fefffe" d="M 473.5,439.5 C 474.833,440.167 474.833,440.167 473.5,439.5 Z"/></g>
<g><path style="opacity:0.004" fill="#fefffe" d="M 198.5,441.5 C 199.833,442.167 199.833,442.167 198.5,441.5 Z"/></g>
<g><path style="opacity:0.004" fill="#fefffe" d="M 255.5,445.5 C 256.833,446.167 256.833,446.167 255.5,445.5 Z"/></g>
<g><path style="opacity:0.004" fill="#fefffe" d="M 17.5,450.5 C 18.8333,451.167 18.8333,451.167 17.5,450.5 Z"/></g>
<g><path style="opacity:0.004" fill="#fefffe" d="M 466.5,453.5 C 467.833,454.167 467.833,454.167 466.5,453.5 Z"/></g>
<g><path style="opacity:0.004" fill="#fefffe" d="M 96.5,456.5 C 97.8333,457.167 97.8333,457.167 96.5,456.5 Z"/></g>
<g><path style="opacity:0.004" fill="#fefffe" d="M 180.5,456.5 C 181.833,457.167 181.833,457.167 180.5,456.5 Z"/></g>
<g><path style="opacity:0.004" fill="#fefffe" d="M 143.5,457.5 C 144.833,458.167 144.833,458.167 143.5,457.5 Z"/></g>
<g><path style="opacity:0.004" fill="#fefffe" d="M 271.5,473.5 C 272.833,474.167 272.833,474.167 271.5,473.5 Z"/></g>
<g><path style="opacity:0.004" fill="#fefffe" d="M 227.5,474.5 C 228.833,475.167 228.833,475.167 227.5,474.5 Z"/></g>
<g><path style="opacity:0.004" fill="#fefffe" d="M 365.5,474.5 C 366.833,475.167 366.833,475.167 365.5,474.5 Z"/></g>
<g><path style="opacity:0.004" fill="#fefffe" d="M 365.5,481.5 C 366.833,482.167 366.833,482.167 365.5,481.5 Z"/></g>
</svg>
