<?xml version="1.0" encoding="UTF-8"?>
<!DOCTYPE svg PUBLIC "-//W3C//DTD SVG 1.1//EN" "http://www.w3.org/Graphics/SVG/1.1/DTD/svg11.dtd">
<svg xmlns="http://www.w3.org/2000/svg" version="1.1" width="500px" height="500px" style="shape-rendering:geometricPrecision; text-rendering:geometricPrecision; image-rendering:optimizeQuality; fill-rule:evenodd; clip-rule:evenodd" xmlns:xlink="http://www.w3.org/1999/xlink">
<g><path style="opacity:0.004" fill="#fefffe" d="M 162.5,9.5 C 163.833,10.1667 163.833,10.1667 162.5,9.5 Z"/></g>
<g><path style="opacity:0.004" fill="#fefffe" d="M 124.5,10.5 C 125.833,11.1667 125.833,11.1667 124.5,10.5 Z"/></g>
<g><path style="opacity:0.004" fill="#fefffe" d="M 325.5,19.5 C 326.833,20.1667 326.833,20.1667 325.5,19.5 Z"/></g>
<g><path style="opacity:0.004" fill="#fefffe" d="M 336.5,20.5 C 337.833,21.1667 337.833,21.1667 336.5,20.5 Z"/></g>
<g><path style="opacity:0.004" fill="#fefffe" d="M 146.5,25.5 C 147.833,26.1667 147.833,26.1667 146.5,25.5 Z"/></g>
<g><path style="opacity:0.004" fill="#fefffe" d="M 234.5,29.5 C 235.833,30.1667 235.833,30.1667 234.5,29.5 Z"/></g>
<g><path style="opacity:0.004" fill="#fefffe" d="M 484.5,41.5 C 485.833,42.1667 485.833,42.1667 484.5,41.5 Z"/></g>
<g><path style="opacity:0.004" fill="#fefffe" d="M 471.5,43.5 C 472.833,44.1667 472.833,44.1667 471.5,43.5 Z"/></g>
<g><path style="opacity:0.004" fill="#fefffe" d="M 388.5,47.5 C 389.833,48.1667 389.833,48.1667 388.5,47.5 Z"/></g>
<g><path style="opacity:0.988" fill="#070405" d="M 362.5,419.5 C 362.823,412.978 362.49,406.645 361.5,400.5C 358.239,399.622 354.906,398.956 351.5,398.5C 348.325,397.571 344.991,396.738 341.5,396C 340.748,395.329 340.414,394.496 340.5,393.5C 340.833,372.823 340.5,352.156 339.5,331.5C 338.893,331.624 338.56,331.957 338.5,332.5C 336.5,336.833 334.5,341.167 332.5,345.5C 331.31,347.355 329.977,349.188 328.5,351C 326.741,351.798 325.074,351.631 323.5,350.5C 314.533,334.52 305.533,318.52 296.5,302.5C 287.694,300.92 279.028,301.42 270.5,304C 266.667,306.5 263.5,309.667 261,313.5C 258.82,319.188 256.653,324.854 254.5,330.5C 253.338,348.995 253.171,367.662 254,386.5C 255.039,385.756 255.539,384.756 255.5,383.5C 264.321,367.194 273.154,350.86 282,334.5C 283.389,332.773 285.056,331.439 287,330.5C 288.995,332.329 290.828,334.329 292.5,336.5C 283.196,345.253 280.029,355.92 283,368.5C 284.653,373.139 286.819,377.472 289.5,381.5C 289.5,394.167 289.5,406.833 289.5,419.5C 286.5,419.5 283.5,419.5 280.5,419.5C 280.667,407.495 280.5,395.495 280,383.5C 277.575,379.651 275.408,375.651 273.5,371.5C 265.492,384.846 257.992,398.512 251,412.5C 242.396,420.375 232.896,421.542 222.5,416C 216.075,410.647 213.408,403.814 214.5,395.5C 215.998,377.858 216.998,360.191 217.5,342.5C 206.431,342.463 196.764,338.796 188.5,331.5C 155.124,330.972 121.791,330.139 88.5,329C 79.033,322.61 75.8663,313.777 79,302.5C 79.8159,301.177 80.9826,300.511 82.5,300.5C 84.371,300.859 85.871,301.859 87,303.5C 87.3333,307.833 87.6667,312.167 88,316.5C 88.3768,317.942 89.2101,318.942 90.5,319.5C 90.9528,320.458 91.6195,321.292 92.5,322C 99.8258,322.5 107.159,322.666 114.5,322.5C 114.17,315.468 114.503,308.468 115.5,301.5C 118.116,300.073 120.449,300.406 122.5,302.5C 122.5,309.167 122.5,315.833 122.5,322.5C 143.673,322.831 164.673,322.497 185.5,321.5C 186.093,315.906 186.926,310.239 188,304.5C 192.532,299.87 197.699,299.204 203.5,302.5C 205.667,304.511 208.334,305.678 211.5,306C 215.486,306.499 219.486,306.666 223.5,306.5C 218.945,291.892 224.278,285.059 239.5,286C 241.587,286.792 243.421,287.959 245,289.5C 248.37,295.575 251.203,301.908 253.5,308.5C 255.987,305.888 256.987,302.721 256.5,299C 255.742,290.85 255.408,282.683 255.5,274.5C 259.58,263.199 262.914,251.532 265.5,239.5C 261.053,238.8 256.72,237.967 252.5,237C 236.97,245.928 221.637,255.094 206.5,264.5C 201.203,266.815 196.203,269.648 191.5,273C 190.167,273.667 188.833,273.667 187.5,273C 167.2,260.198 146.534,248.031 125.5,236.5C 96.3332,241.176 83.3332,258.176 86.5,287.5C 85.3777,288.63 84.0443,289.297 82.5,289.5C 80.9826,289.489 79.8159,288.823 79,287.5C 74.9307,266.346 81.4307,249.513 98.5,237C 108.388,233.028 118.388,229.361 128.5,226C 137.996,219.418 147.662,213.085 157.5,207C 160.38,204.747 161.046,201.914 159.5,198.5C 149.586,190.143 143.586,179.477 141.5,166.5C 138.567,165.07 136.067,163.07 134,160.5C 132.742,147.222 132.075,133.889 132,120.5C 131.085,119.672 130.419,118.672 130,117.5C 129.667,111.167 129.333,104.833 129,98.5C 122.698,96.4077 116.198,95.4077 109.5,95.5C 109.171,101.537 109.504,107.537 110.5,113.5C 114.446,114.373 116.946,116.707 118,120.5C 118.812,136.349 120.978,152.016 124.5,167.5C 123.842,172.327 121.175,175.494 116.5,177C 108.833,177.667 101.167,177.667 93.5,177C 86.951,174.221 84.7844,169.388 87,162.5C 89.9497,147.857 91.9497,133.19 93,118.5C 94.7985,116.028 97.1318,114.361 100,113.5C 100.667,106.167 100.667,98.8333 100,91.5C 96.3679,86.2551 96.8679,81.4218 101.5,77C 130.744,67.0298 160.244,57.8631 190,49.5C 219.734,57.8554 249.234,67.022 278.5,77C 283.366,81.7186 283.699,86.7186 279.5,92C 270.073,94.5315 260.573,96.6982 251,98.5C 250.667,104.833 250.333,111.167 250,117.5C 249.215,119.286 248.049,120.786 246.5,122C 246.855,129.168 247.189,136.501 247.5,144C 247.549,149.233 247.049,154.4 246,159.5C 244.249,162.92 241.582,165.254 238,166.5C 236.121,179.602 230.121,190.269 220,198.5C 219.186,200.902 219.353,203.235 220.5,205.5C 230.833,212.333 241.167,219.167 251.5,226C 256.205,228.234 261.039,230.068 266,231.5C 265.755,221.175 265.755,210.842 266,200.5C 270.268,175.111 284.268,158.444 308,150.5C 340.107,142.725 364.441,153.058 381,181.5C 383.27,186.644 384.937,191.978 386,197.5C 386.333,212.167 386.667,226.833 387,241.5C 391.205,252.913 394.539,264.579 397,276.5C 397.494,285.913 397.16,295.246 396,304.5C 399.383,309.275 402.216,314.275 404.5,319.5C 406.667,318.208 409,317.375 411.5,317C 426.103,314.21 440.77,312.21 455.5,311C 456,311.5 456.5,312 457,312.5C 457.667,339.833 457.667,367.167 457,394.5C 455.846,395.743 454.512,396.743 453,397.5C 452.484,400.034 451.317,402.2 449.5,404C 444.186,405.332 438.853,406.665 433.5,408C 425.902,420.367 415.902,422.701 403.5,415C 401.004,412.344 399.004,409.344 397.5,406C 388.991,405.965 380.658,404.798 372.5,402.5C 371.505,408.128 371.171,413.794 371.5,419.5C 368.5,419.5 365.5,419.5 362.5,419.5 Z"/></g>
<g><path style="opacity:0.004" fill="#fefffe" d="M 388.5,55.5 C 389.833,56.1667 389.833,56.1667 388.5,55.5 Z"/></g>
<g><path style="opacity:0.004" fill="#fefffe" d="M 103.5,59.5 C 104.833,60.1667 104.833,60.1667 103.5,59.5 Z"/></g>
<g><path style="opacity:0.004" fill="#fefffe" d="M 469.5,59.5 C 470.833,60.1667 470.833,60.1667 469.5,59.5 Z"/></g>
<g><path style="opacity:1" fill="#406f92" d="M 196.5,83.5 C 176.13,85.0186 155.797,87.0186 135.5,89.5C 125.551,89.2228 115.885,87.5562 106.5,84.5C 124.063,78.6461 141.73,72.9794 159.5,67.5C 162.518,67.6646 165.518,67.498 168.5,67C 174.886,63.7679 181.553,61.2679 188.5,59.5C 192.111,60.7037 195.778,61.7037 199.5,62.5C 199.5,69.5 199.5,76.5 199.5,83.5C 198.5,83.5 197.5,83.5 196.5,83.5 Z"/></g>
<g><path style="opacity:0.004" fill="#fefffe" d="M 380.5,63.5 C 381.833,64.1667 381.833,64.1667 380.5,63.5 Z"/></g>
<g><path style="opacity:1" fill="#375d7a" d="M 231.5,94.5 C 230.733,93.828 230.066,92.9947 229.5,92C 225.852,90.622 222.519,90.7887 219.5,92.5C 219.859,90.2341 219.192,88.4007 217.5,87C 210.331,86.0073 203.331,84.8407 196.5,83.5C 197.5,83.5 198.5,83.5 199.5,83.5C 199.5,76.5 199.5,69.5 199.5,62.5C 195.778,61.7037 192.111,60.7037 188.5,59.5C 181.553,61.2679 174.886,63.7679 168.5,67C 165.518,67.498 162.518,67.6646 159.5,67.5C 167.683,64.605 176.016,61.7716 184.5,59C 187.167,58.3333 189.833,58.3333 192.5,59C 216.323,65.8716 239.989,73.205 263.5,81C 266.618,82.1471 269.618,83.4804 272.5,85C 260.325,88.3003 247.992,89.467 235.5,88.5C 232.297,89.1352 230.964,91.1352 231.5,94.5 Z"/></g>
<g><path style="opacity:0.004" fill="#fefffe" d="M 32.5,66.5 C 33.8333,67.1667 33.8333,67.1667 32.5,66.5 Z"/></g>
<g><path style="opacity:0.004" fill="#fefffe" d="M 49.5,72.5 C 50.8333,73.1667 50.8333,73.1667 49.5,72.5 Z"/></g>
<g><path style="opacity:0.004" fill="#fefffe" d="M 421.5,78.5 C 422.833,79.1667 422.833,79.1667 421.5,78.5 Z"/></g>
<g><path style="opacity:1" fill="#4c7fa7" d="M 207.5,94.5 C 207.5,101.167 207.5,107.833 207.5,114.5C 184.5,114.5 161.5,114.5 138.5,114.5C 138.5,108.833 138.5,103.167 138.5,97.5C 150.85,96.2198 163.184,94.7198 175.5,93C 186.386,92.0638 197.053,92.5638 207.5,94.5 Z"/></g>
<g><path style="opacity:1" fill="#416f92" d="M 231.5,94.5 C 234.251,96.9745 237.584,97.9745 241.5,97.5C 241.5,103.167 241.5,108.833 241.5,114.5C 230.167,114.5 218.833,114.5 207.5,114.5C 207.5,107.833 207.5,101.167 207.5,94.5C 211.182,94.6653 214.848,94.4986 218.5,94C 219.056,93.6174 219.389,93.1174 219.5,92.5C 222.519,90.7887 225.852,90.622 229.5,92C 230.066,92.9947 230.733,93.828 231.5,94.5 Z"/></g>
<g><path style="opacity:0.004" fill="#fefffe" d="M 73.5,109.5 C 74.8333,110.167 74.8333,110.167 73.5,109.5 Z"/></g>
<g><path style="opacity:1" fill="#0c273a" d="M 138.5,97.5 C 138.5,103.167 138.5,108.833 138.5,114.5C 161.5,114.5 184.5,114.5 207.5,114.5C 218.833,114.5 230.167,114.5 241.5,114.5C 207.004,115.498 172.337,115.832 137.5,115.5C 137.177,109.31 137.51,103.31 138.5,97.5 Z"/></g>
<g><path style="opacity:0.004" fill="#fefffe" d="M 32.5,116.5 C 33.8333,117.167 33.8333,117.167 32.5,116.5 Z"/></g>
<g><path style="opacity:0.004" fill="#fefffe" d="M 76.5,119.5 C 77.8333,120.167 77.8333,120.167 76.5,119.5 Z"/></g>
<g><path style="opacity:1" fill="#fcdccd" d="M 159.5,123.5 C 175.5,123.5 191.5,123.5 207.5,123.5C 207.667,141.836 207.5,160.17 207,178.5C 203.737,186.034 199.237,192.701 193.5,198.5C 195.655,198.838 197.989,198.838 200.5,198.5C 178.559,203.775 162.725,196.109 153,175.5C 151.872,170.861 150.872,166.195 150,161.5C 147.805,159.07 145.138,157.403 142,156.5C 141.501,152.514 141.334,148.514 141.5,144.5C 155.351,144.311 161.351,137.311 159.5,123.5 Z"/></g>
<g><path style="opacity:1" fill="#f6c6ba" d="M 159.5,123.5 C 179.66,122.503 199.993,122.17 220.5,122.5C 218.077,132.161 221.077,139.328 229.5,144C 232.482,144.498 235.482,144.665 238.5,144.5C 238.666,148.514 238.499,152.514 238,156.5C 235.546,157.198 233.213,158.198 231,159.5C 229.645,173.717 223.478,185.217 212.5,194C 208.781,196.364 204.781,197.864 200.5,198.5C 197.989,198.838 195.655,198.838 193.5,198.5C 199.237,192.701 203.737,186.034 207,178.5C 207.5,160.17 207.667,141.836 207.5,123.5C 191.5,123.5 175.5,123.5 159.5,123.5 Z"/></g>
<g><path style="opacity:1" fill="#e8d283" d="M 100.5,122.5 C 103.5,122.5 106.5,122.5 109.5,122.5C 109.5,125.167 109.5,127.833 109.5,130.5C 106.5,130.5 103.5,130.5 100.5,130.5C 100.5,127.833 100.5,125.167 100.5,122.5 Z"/></g>
<g><path style="opacity:1" fill="#89744f" d="M 141.5,123.5 C 144.625,122.521 147.958,122.187 151.5,122.5C 151.815,126.371 151.482,130.038 150.5,133.5C 150.5,130.167 150.5,126.833 150.5,123.5C 147.5,123.5 144.5,123.5 141.5,123.5 Z"/></g>
<g><path style="opacity:1" fill="#e8c586" d="M 141.5,123.5 C 144.5,123.5 147.5,123.5 150.5,123.5C 150.5,126.833 150.5,130.167 150.5,133.5C 148.155,136.075 145.155,137.075 141.5,136.5C 141.5,132.167 141.5,127.833 141.5,123.5 Z"/></g>
<g><path style="opacity:1" fill="#a58a60" d="M 231.5,135.5 C 233.5,135.5 235.5,135.5 237.5,135.5C 237.5,131.5 237.5,127.5 237.5,123.5C 234.833,123.5 232.167,123.5 229.5,123.5C 229.5,126.833 229.5,130.167 229.5,133.5C 228.518,130.038 228.185,126.371 228.5,122.5C 231.833,122.5 235.167,122.5 238.5,122.5C 238.5,127.167 238.5,131.833 238.5,136.5C 235.941,136.802 233.607,136.468 231.5,135.5 Z"/></g>
<g><path style="opacity:1" fill="#e8bd6f" d="M 231.5,135.5 C 230.5,135.167 229.833,134.5 229.5,133.5C 229.5,130.167 229.5,126.833 229.5,123.5C 232.167,123.5 234.833,123.5 237.5,123.5C 237.5,127.5 237.5,131.5 237.5,135.5C 235.5,135.5 233.5,135.5 231.5,135.5 Z"/></g>
<g><path style="opacity:1" fill="#dfeff6" d="M 99.5,138.5 C 103.226,138.177 106.893,138.511 110.5,139.5C 112.553,149.098 114.22,158.765 115.5,168.5C 108.833,168.5 102.167,168.5 95.5,168.5C 96.3657,158.44 97.6991,148.44 99.5,138.5 Z"/></g>
<g><path style="opacity:0.004" fill="#fefffe" d="M 30.5,141.5 C 31.8333,142.167 31.8333,142.167 30.5,141.5 Z"/></g>
<g><path style="opacity:0.004" fill="#fefffe" d="M 78.5,146.5 C 79.8333,147.167 79.8333,147.167 78.5,146.5 Z"/></g>
<g><path style="opacity:0.004" fill="#fefffe" d="M 487.5,174.5 C 488.833,175.167 488.833,175.167 487.5,174.5 Z"/></g>
<g><path style="opacity:0.004" fill="#fefffe" d="M 428.5,182.5 C 429.833,183.167 429.833,183.167 428.5,182.5 Z"/></g>
<g><path style="opacity:0.004" fill="#fefffe" d="M 408.5,183.5 C 409.833,184.167 409.833,184.167 408.5,183.5 Z"/></g>
<g><path style="opacity:1" fill="#6f422d" d="M 291.5,170.5 C 291.33,171.822 291.663,172.989 292.5,174C 290.559,174.304 288.893,175.137 287.5,176.5C 278.972,188.786 274.972,202.453 275.5,217.5C 272.686,199.1 278.02,183.433 291.5,170.5 Z"/></g>
<g><path style="opacity:1" fill="#603725" d="M 369.5,181.5 C 373.229,186.152 375.729,191.486 377,197.5C 377.333,212.833 377.667,228.167 378,243.5C 379.608,248.822 381.108,254.155 382.5,259.5C 379.659,255.004 377.493,250.004 376,244.5C 376.03,230.167 376.03,215.834 376,201.5C 374.133,194.732 371.966,188.065 369.5,181.5 Z"/></g>
<g><path style="opacity:0.004" fill="#fefffe" d="M 444.5,193.5 C 445.833,194.167 445.833,194.167 444.5,193.5 Z"/></g>
<g><path style="opacity:0.004" fill="#fefffe" d="M 1.5,197.5 C 2.83333,198.167 2.83333,198.167 1.5,197.5 Z"/></g>
<g><path style="opacity:0.004" fill="#fefffe" d="M 249.5,198.5 C 250.833,199.167 250.833,199.167 249.5,198.5 Z"/></g>
<g><path style="opacity:1" fill="#f9c6a2" d="M 361.5,239.5 C 361.5,231.5 361.5,223.5 361.5,215.5C 358.449,215.636 355.449,215.302 352.5,214.5C 350.893,214.637 349.559,215.304 348.5,216.5C 350.616,217.972 352.949,219.139 355.5,220C 353.798,221.718 351.965,221.885 350,220.5C 349.5,221 349,221.5 348.5,222C 350.237,233.466 349.237,244.799 345.5,256C 346.399,257.236 347.566,258.07 349,258.5C 350.838,256.994 352.671,255.494 354.5,254C 352.213,251.952 352.046,249.785 354,247.5C 355.084,249.782 356.584,250.116 358.5,248.5C 354.948,258.547 347.948,265.047 337.5,268C 312.918,273.085 297.085,263.585 290,239.5C 289.333,230.833 289.333,222.167 290,213.5C 298.087,207.415 304.754,200.082 310,191.5C 325.403,203.952 342.903,211.618 362.5,214.5C 362.826,223.017 362.493,231.35 361.5,239.5 Z"/></g>
<g><path style="opacity:0.004" fill="#fefffe" d="M 46.5,204.5 C 47.8333,205.167 47.8333,205.167 46.5,204.5 Z"/></g>
<g><path style="opacity:0.004" fill="#fefffe" d="M 228.5,206.5 C 229.833,207.167 229.833,207.167 228.5,206.5 Z"/></g>
<g><path style="opacity:1" fill="#f6d8ca" d="M 169.5,204.5 C 182.76,209.826 196.093,209.826 209.5,204.5C 210.809,212.024 210.143,219.357 207.5,226.5C 196.021,229.862 184.355,230.362 172.5,228C 170.365,220.348 169.365,212.515 169.5,204.5 Z"/></g>
<g><path style="opacity:0.004" fill="#fefffe" d="M 476.5,209.5 C 477.833,210.167 477.833,210.167 476.5,209.5 Z"/></g>
<g><path style="opacity:0.004" fill="#fefffe" d="M 73.5,211.5 C 74.8333,212.167 74.8333,212.167 73.5,211.5 Z"/></g>
<g><path style="opacity:1" fill="#fcbe92" d="M 361.5,239.5 C 361.554,242.992 360.554,245.992 358.5,248.5C 356.584,250.116 355.084,249.782 354,247.5C 352.046,249.785 352.213,251.952 354.5,254C 352.671,255.494 350.838,256.994 349,258.5C 347.566,258.07 346.399,257.236 345.5,256C 349.237,244.799 350.237,233.466 348.5,222C 349,221.5 349.5,221 350,220.5C 351.965,221.885 353.798,221.718 355.5,220C 352.949,219.139 350.616,217.972 348.5,216.5C 349.559,215.304 350.893,214.637 352.5,214.5C 355.449,215.302 358.449,215.636 361.5,215.5C 361.5,223.5 361.5,231.5 361.5,239.5 Z"/></g>
<g><path style="opacity:1" fill="#4b7ca3" d="M 160.5,214.5 C 162.743,228.756 167.743,242.089 175.5,254.5C 175.167,254.833 174.833,255.167 174.5,255.5C 161.297,247.737 148.297,239.737 135.5,231.5C 144.072,226.058 152.406,220.391 160.5,214.5 Z"/></g>
<g><path style="opacity:1" fill="#4b7da4" d="M 218.5,215.5 C 227.445,220.31 236.112,225.643 244.5,231.5C 231.5,239.5 218.5,247.5 205.5,255.5C 205.167,255.167 204.833,254.833 204.5,254.5C 212.251,242.653 216.918,229.653 218.5,215.5 Z"/></g>
<g><path style="opacity:0.004" fill="#fefffe" d="M 73.5,234.5 C 74.8333,235.167 74.8333,235.167 73.5,234.5 Z"/></g>
<g><path style="opacity:1" fill="#3d3e3e" d="M 199.5,236.5 C 191.833,237.167 184.167,237.833 176.5,238.5C 175.957,238.44 175.624,238.107 175.5,237.5C 183.472,236.502 191.472,236.169 199.5,236.5 Z"/></g>
<g><path style="opacity:1" fill="#406f92" d="M 206.5,264.5 C 208.5,264.5 210.5,264.5 212.5,264.5C 212.5,263.5 212.5,262.5 212.5,261.5C 217.525,261.155 221.525,258.989 224.5,255C 228.122,253.894 231.789,253.561 235.5,254C 242.61,257.637 249.11,262.137 255,267.5C 255.497,269.81 255.663,272.143 255.5,274.5C 255.408,282.683 255.742,290.85 256.5,299C 256.987,302.721 255.987,305.888 253.5,308.5C 251.203,301.908 248.37,295.575 245,289.5C 243.421,287.959 241.587,286.792 239.5,286C 224.278,285.059 218.945,291.892 223.5,306.5C 219.486,306.666 215.486,306.499 211.5,306C 208.334,305.678 205.667,304.511 203.5,302.5C 203.586,301.504 203.252,300.671 202.5,300C 197.833,299.333 193.167,299.333 188.5,300C 188.833,300.333 189.167,300.667 189.5,301C 186.953,301.436 185.62,302.936 185.5,305.5C 184.312,310.438 183.645,315.438 183.5,320.5C 164.164,320.667 144.83,320.5 125.5,320C 124.688,313.915 124.188,307.748 124,301.5C 120.491,297.387 116.324,296.554 111.5,299C 112.578,299.674 113.245,300.674 113.5,302C 112.606,308.131 112.273,314.298 112.5,320.5C 105.132,320.683 97.7985,320.35 90.5,319.5C 89.2101,318.942 88.3768,317.942 88,316.5C 87.6667,312.167 87.3333,307.833 87,303.5C 85.871,301.859 84.371,300.859 82.5,300.5C 82.5,296.833 82.5,293.167 82.5,289.5C 84.0443,289.297 85.3777,288.63 86.5,287.5C 83.3332,258.176 96.3332,241.176 125.5,236.5C 146.534,248.031 167.2,260.198 187.5,273C 188.833,273.667 190.167,273.667 191.5,273C 196.203,269.648 201.203,266.815 206.5,264.5 Z"/></g>
<g><path style="opacity:1" fill="#eef5f7" d="M 199.5,236.5 C 201.288,236.215 202.955,236.548 204.5,237.5C 200.295,245.874 195.461,253.874 190,261.5C 184.468,254.436 179.968,246.769 176.5,238.5C 184.167,237.833 191.833,237.167 199.5,236.5 Z"/></g>
<g><path style="opacity:1" fill="#365e7c" d="M 255.5,274.5 C 255.663,272.143 255.497,269.81 255,267.5C 249.11,262.137 242.61,257.637 235.5,254C 231.789,253.561 228.122,253.894 224.5,255C 221.525,258.989 217.525,261.155 212.5,261.5C 212.5,262.5 212.5,263.5 212.5,264.5C 210.5,264.5 208.5,264.5 206.5,264.5C 221.637,255.094 236.97,245.928 252.5,237C 256.72,237.967 261.053,238.8 265.5,239.5C 262.914,251.532 259.58,263.199 255.5,274.5 Z"/></g>
<g><path style="opacity:1" fill="#130b08" d="M 312.5,238.5 C 315.833,238.5 319.167,238.5 322.5,238.5C 322.077,241.243 323.244,242.576 326,242.5C 328.163,242.505 329.663,241.505 330.5,239.5C 333.428,238.516 336.428,238.183 339.5,238.5C 336.8,251.349 329.467,254.849 317.5,249C 314.885,245.938 313.219,242.438 312.5,238.5 Z"/></g>
<g><path style="opacity:1" fill="#8c4c2d" d="M 341.5,199.5 C 329.907,195.035 319.574,188.535 310.5,180C 308.559,179.257 306.726,179.424 305,180.5C 300.428,191.073 293.595,199.907 284.5,207C 283.552,207.483 282.552,207.649 281.5,207.5C 281.333,218.838 281.5,230.172 282,241.5C 284.791,254.767 291.791,265.1 303,272.5C 303.5,279.158 303.666,285.825 303.5,292.5C 292.782,292.213 282.115,292.546 271.5,293.5C 269.833,293.5 268.167,293.5 266.5,293.5C 265.677,279.422 268.177,266.089 274,253.5C 274.101,250.3 274.768,247.3 276,244.5C 276.821,237.321 276.655,230.321 275.5,223.5C 275.5,221.5 275.5,219.5 275.5,217.5C 274.972,202.453 278.972,188.786 287.5,176.5C 288.893,175.137 290.559,174.304 292.5,174C 291.663,172.989 291.33,171.822 291.5,170.5C 291.842,169.662 292.508,169.328 293.5,169.5C 299.922,166.274 306.422,163.274 313,160.5C 317.587,158.334 322.087,158.334 326.5,160.5C 330.618,164.635 334.952,168.301 339.5,171.5C 339.67,172.822 339.337,173.989 338.5,175C 339.448,175.483 340.448,175.649 341.5,175.5C 342.697,179.251 344.197,182.918 346,186.5C 346.599,191.06 347.432,195.393 348.5,199.5C 346.167,199.5 343.833,199.5 341.5,199.5 Z"/></g>
<g><path style="opacity:1" fill="#7f452a" d="M 369.5,181.5 C 371.966,188.065 374.133,194.732 376,201.5C 376.03,215.834 376.03,230.167 376,244.5C 377.493,250.004 379.659,255.004 382.5,259.5C 384.067,263.698 385.567,268.031 387,272.5C 387.5,280.493 387.666,288.493 387.5,296.5C 383.667,295.039 379.667,293.872 375.5,293C 366.589,292.819 357.755,292.319 349,291.5C 348.333,285.167 348.333,278.833 349,272.5C 361.5,264.99 368.834,253.99 371,239.5C 371.667,229.167 371.667,218.833 371,208.5C 364.901,206.91 358.735,205.41 352.5,204C 348.532,202.962 344.865,201.462 341.5,199.5C 343.833,199.5 346.167,199.5 348.5,199.5C 347.432,195.393 346.599,191.06 346,186.5C 344.197,182.918 342.697,179.251 341.5,175.5C 340.448,175.649 339.448,175.483 338.5,175C 339.337,173.989 339.67,172.822 339.5,171.5C 334.952,168.301 330.618,164.635 326.5,160.5C 322.087,158.334 317.587,158.334 313,160.5C 306.422,163.274 299.922,166.274 293.5,169.5C 305.305,158.543 319.305,154.71 335.5,158C 350.543,160.671 361.876,168.505 369.5,181.5 Z"/></g>
<g><path style="opacity:1" fill="#73442f" d="M 275.5,223.5 C 276.655,230.321 276.821,237.321 276,244.5C 274.768,247.3 274.101,250.3 274,253.5C 268.177,266.089 265.677,279.422 266.5,293.5C 268.167,293.5 269.833,293.5 271.5,293.5C 269.574,295.293 267.241,296.293 264.5,296.5C 264.334,288.826 264.5,281.159 265,273.5C 268.762,264.135 271.762,254.468 274,244.5C 275.288,237.563 275.788,230.563 275.5,223.5 Z"/></g>
<g><path style="opacity:1" fill="#f9c59f" d="M 312.5,277.5 C 321.493,278.801 330.493,278.801 339.5,277.5C 339.334,282.511 339.501,287.511 340,292.5C 340.816,296.135 342.65,299.135 345.5,301.5C 344.167,304.167 342.833,306.833 341.5,309.5C 331.517,310.666 321.517,310.832 311.5,310C 309.959,307.084 308.293,304.251 306.5,301.5C 308.949,299.224 310.782,296.558 312,293.5C 312.499,288.177 312.666,282.844 312.5,277.5 Z"/></g>
<g><path style="opacity:0.004" fill="#fefffe" d="M 458.5,294.5 C 459.833,295.167 459.833,295.167 458.5,294.5 Z"/></g>
<g><path style="opacity:1" fill="#e48888" d="M 385.5,307.5 C 386.536,309.391 386.536,311.224 385.5,313C 386.793,313.49 388.127,313.657 389.5,313.5C 389.5,314.5 389.5,315.5 389.5,316.5C 382.972,314.96 376.305,314.126 369.5,314C 364.925,311.155 359.925,309.822 354.5,310C 355.423,307.959 355.756,305.792 355.5,303.5C 358.428,302.18 361.761,301.514 365.5,301.5C 373.186,300.51 379.853,302.51 385.5,307.5 Z"/></g>
<g><path style="opacity:0.004" fill="#fefffe" d="M 47.5,306.5 C 48.8333,307.167 48.8333,307.167 47.5,306.5 Z"/></g>
<g><path style="opacity:1" fill="#ca7e80" d="M 355.5,303.5 C 355.756,305.792 355.423,307.959 354.5,310C 359.925,309.822 364.925,311.155 369.5,314C 376.305,314.126 382.972,314.96 389.5,316.5C 389.5,315.5 389.5,314.5 389.5,313.5C 388.127,313.657 386.793,313.49 385.5,313C 386.536,311.224 386.536,309.391 385.5,307.5C 390.107,310.725 392.607,315.058 393,320.5C 391.352,319.283 389.519,318.45 387.5,318C 376.078,316.516 364.745,314.516 353.5,312C 352.572,311.612 351.905,310.945 351.5,310C 352.727,307.702 354.06,305.535 355.5,303.5 Z"/></g>
<g><path style="opacity:1" fill="#fdc9a3" d="M 234.5,305.5 C 233.326,304.486 232.66,303.153 232.5,301.5C 232.771,300.448 232.938,299.115 233,297.5C 233.718,296.549 234.551,296.383 235.5,297C 243.015,306.873 245.348,318.039 242.5,330.5C 231.88,331.643 221.214,331.81 210.5,331C 206.411,329.271 202.411,327.437 198.5,325.5C 197.167,321.5 197.167,317.5 198.5,313.5C 210.302,316.439 222.302,317.272 234.5,316C 237.57,313.431 238.237,310.264 236.5,306.5C 236.043,305.702 235.376,305.369 234.5,305.5 Z"/></g>
<g><path style="opacity:1" fill="#446983" d="M 203.5,302.5 C 197.699,299.204 192.532,299.87 188,304.5C 186.926,310.239 186.093,315.906 185.5,321.5C 164.833,321.5 144.167,321.5 123.5,321.5C 123.823,314.978 123.49,308.645 122.5,302.5C 120.449,300.406 118.116,300.073 115.5,301.5C 114.503,308.468 114.17,315.468 114.5,322.5C 107.159,322.666 99.8258,322.5 92.5,322C 91.6195,321.292 90.9528,320.458 90.5,319.5C 97.7985,320.35 105.132,320.683 112.5,320.5C 112.273,314.298 112.606,308.131 113.5,302C 113.245,300.674 112.578,299.674 111.5,299C 116.324,296.554 120.491,297.387 124,301.5C 124.188,307.748 124.688,313.915 125.5,320C 144.83,320.5 164.164,320.667 183.5,320.5C 183.645,315.438 184.312,310.438 185.5,305.5C 185.62,302.936 186.953,301.436 189.5,301C 189.167,300.667 188.833,300.333 188.5,300C 193.167,299.333 197.833,299.333 202.5,300C 203.252,300.671 203.586,301.504 203.5,302.5 Z"/></g>
<g><path style="opacity:1" fill="#2a4155" d="M 122.5,302.5 C 123.49,308.645 123.823,314.978 123.5,321.5C 144.167,321.5 164.833,321.5 185.5,321.5C 164.673,322.497 143.673,322.831 122.5,322.5C 122.5,315.833 122.5,309.167 122.5,302.5 Z"/></g>
<g><path style="opacity:1" fill="#d1d2d0" d="M 316.5,319.5 C 322.868,319.17 329.202,319.504 335.5,320.5C 332.585,325.998 329.419,331.332 326,336.5C 322.809,330.779 319.642,325.112 316.5,319.5 Z"/></g>
<g><path style="opacity:0.004" fill="#fefffe" d="M 70.5,322.5 C 71.8333,323.167 71.8333,323.167 70.5,322.5 Z"/></g>
<g><path style="opacity:0.004" fill="#fefffe" d="M 1.5,325.5 C 2.83333,326.167 2.83333,326.167 1.5,325.5 Z"/></g>
<g><path style="opacity:1" fill="#c4b17e" d="M 348.5,320.5 C 361.125,322.614 373.791,324.781 386.5,327C 394.451,331.424 394.117,333.424 385.5,333C 373.164,330.453 360.831,327.953 348.5,325.5C 348.5,323.833 348.5,322.167 348.5,320.5 Z"/></g>
<g><path style="opacity:1" fill="#c7b581" d="M 444.5,320.5 C 445.833,320.5 447.167,320.5 448.5,320.5C 448.5,322.167 448.5,323.833 448.5,325.5C 434.556,327.463 420.723,330.13 407,333.5C 404.217,332.697 404.051,331.197 406.5,329C 408.5,328 410.5,327 412.5,326C 423.427,324.844 434.094,323.011 444.5,320.5 Z"/></g>
<g><path style="opacity:0.004" fill="#fefffe" d="M 1.5,329.5 C 2.83333,330.167 2.83333,330.167 1.5,329.5 Z"/></g>
<g><path style="opacity:1" fill="#e5bfa2" d="M 234.5,305.5 C 235.376,305.369 236.043,305.702 236.5,306.5C 238.237,310.264 237.57,313.431 234.5,316C 222.302,317.272 210.302,316.439 198.5,313.5C 197.167,317.5 197.167,321.5 198.5,325.5C 202.411,327.437 206.411,329.271 210.5,331C 221.214,331.81 231.88,331.643 242.5,330.5C 245.348,318.039 243.015,306.873 235.5,297C 234.551,296.383 233.718,296.549 233,297.5C 232.938,299.115 232.771,300.448 232.5,301.5C 229.866,299.46 229.866,297.293 232.5,295C 234.167,294.333 235.833,294.333 237.5,295C 240.051,299.271 242.218,303.771 244,308.5C 244.5,316.827 244.666,325.16 244.5,333.5C 232.495,333.667 220.495,333.5 208.5,333C 203.952,331.142 199.785,328.642 196,325.5C 195.171,320.136 195.337,314.802 196.5,309.5C 200.361,312.4 204.695,314.233 209.5,315C 217.167,315.667 224.833,315.667 232.5,315C 233.416,314.626 234.25,314.126 235,313.5C 235.602,310.779 235.435,308.113 234.5,305.5 Z"/></g>
<g><path style="opacity:0.004" fill="#fefffe" d="M 135.5,333.5 C 136.833,334.167 136.833,334.167 135.5,333.5 Z"/></g>
<g><path style="opacity:1" fill="#ea8b8c" d="M 332.5,345.5 C 333.496,345.586 334.329,345.252 335,344.5C 335.739,342.779 336.573,341.113 337.5,339.5C 338.499,351.482 338.832,363.482 338.5,375.5C 335.918,377.232 333.418,379.232 331,381.5C 326.952,386.427 322.785,391.26 318.5,396C 309.271,402.018 300.771,408.851 293,416.5C 292.667,416.167 292.333,415.833 292,415.5C 291.517,416.448 291.351,417.448 291.5,418.5C 290.833,406.167 290.167,393.833 289.5,381.5C 286.819,377.472 284.653,373.139 283,368.5C 280.029,355.92 283.196,345.253 292.5,336.5C 290.828,334.329 288.995,332.329 287,330.5C 285.056,331.439 283.389,332.773 282,334.5C 273.154,350.86 264.321,367.194 255.5,383.5C 254.503,366.008 254.17,348.341 254.5,330.5C 256.653,324.854 258.82,319.188 261,313.5C 263.5,309.667 266.667,306.5 270.5,304C 279.028,301.42 287.694,300.92 296.5,302.5C 305.533,318.52 314.533,334.52 323.5,350.5C 325.074,351.631 326.741,351.798 328.5,351C 329.977,349.188 331.31,347.355 332.5,345.5 Z"/></g>
<g><path style="opacity:1" fill="#955a5a" d="M 254.5,330.5 C 254.17,348.341 254.503,366.008 255.5,383.5C 255.539,384.756 255.039,385.756 254,386.5C 253.171,367.662 253.338,348.995 254.5,330.5 Z"/></g>
<g><path style="opacity:0.004" fill="#fefffe" d="M 13.5,336.5 C 14.8333,337.167 14.8333,337.167 13.5,336.5 Z"/></g>
<g><path style="opacity:0.004" fill="#fefffe" d="M 114.5,342.5 C 115.833,343.167 115.833,343.167 114.5,342.5 Z"/></g>
<g><path style="opacity:1" fill="#a06448" d="M 353.5,335.5 C 363.883,337.243 374.216,339.243 384.5,341.5C 384.5,359.167 384.5,376.833 384.5,394.5C 383.167,394.5 381.833,394.5 380.5,394.5C 370.032,393.034 359.699,391.034 349.5,388.5C 349.5,370.833 349.5,353.167 349.5,335.5C 350.833,335.5 352.167,335.5 353.5,335.5 Z"/></g>
<g><path style="opacity:1" fill="#dbdbd9" d="M 226.5,342.5 C 232.5,342.5 238.5,342.5 244.5,342.5C 244.5,345.5 244.5,348.5 244.5,351.5C 238.5,351.5 232.5,351.5 226.5,351.5C 226.5,348.5 226.5,345.5 226.5,342.5 Z"/></g>
<g><path style="opacity:1" fill="#8e4c2d" d="M 439.5,369.5 C 435.037,370.946 430.371,371.78 425.5,372C 422.743,372.938 420.41,374.438 418.5,376.5C 417.25,376.577 416.417,377.244 416,378.5C 415.829,383.533 415.329,388.533 414.5,393.5C 413.444,376.415 413.278,359.415 414,342.5C 424.815,340.115 435.648,338.115 446.5,336.5C 446.5,347.167 446.5,357.833 446.5,368.5C 443.941,368.198 441.607,368.532 439.5,369.5 Z"/></g>
<g><path style="opacity:1" fill="#d18889" d="M 338.5,332.5 C 339.167,352.833 339.833,373.167 340.5,393.5C 340.414,394.496 340.748,395.329 341.5,396C 344.991,396.738 348.325,397.571 351.5,398.5C 347.119,398.628 342.785,398.295 338.5,397.5C 338.5,390.167 338.5,382.833 338.5,375.5C 338.832,363.482 338.499,351.482 337.5,339.5C 336.573,341.113 335.739,342.779 335,344.5C 334.329,345.252 333.496,345.586 332.5,345.5C 334.5,341.167 336.5,336.833 338.5,332.5 Z"/></g>
<g><path style="opacity:1" fill="#57372c" d="M 442.5,335.5 C 444.265,334.539 446.265,334.205 448.5,334.5C 448.5,346.5 448.5,358.5 448.5,370.5C 446.901,370.768 445.568,370.434 444.5,369.5C 445.5,369.5 446.5,369.5 447.5,369.5C 447.5,358.167 447.5,346.833 447.5,335.5C 445.833,335.5 444.167,335.5 442.5,335.5 Z"/></g>
<g><path style="opacity:0.004" fill="#fefffe" d="M 475.5,350.5 C 476.833,351.167 476.833,351.167 475.5,350.5 Z"/></g>
<g><path style="opacity:1" fill="#3e1f1e" d="M 338.5,332.5 C 338.56,331.957 338.893,331.624 339.5,331.5C 340.5,352.156 340.833,372.823 340.5,393.5C 339.833,373.167 339.167,352.833 338.5,332.5 Z"/></g>
<g><path style="opacity:1" fill="#6c4f3f" d="M 353.5,335.5 C 352.167,335.5 350.833,335.5 349.5,335.5C 349.5,353.167 349.5,370.833 349.5,388.5C 348.503,370.674 348.17,352.674 348.5,334.5C 350.415,334.216 352.081,334.549 353.5,335.5 Z"/></g>
<g><path style="opacity:1" fill="#4c2a1b" d="M 384.5,341.5 C 385.497,359.326 385.83,377.326 385.5,395.5C 383.585,395.784 381.919,395.451 380.5,394.5C 381.833,394.5 383.167,394.5 384.5,394.5C 384.5,376.833 384.5,359.167 384.5,341.5 Z"/></g>
<g><path style="opacity:1" fill="#754c36" d="M 393.5,342.5 C 396.833,342.5 400.167,342.5 403.5,342.5C 403.5,360.5 403.5,378.5 403.5,396.5C 400.167,396.5 396.833,396.5 393.5,396.5C 393.5,378.5 393.5,360.5 393.5,342.5 Z"/></g>
<g><path style="opacity:1" fill="#3c1909" d="M 412.5,341.5 C 412.5,359.167 412.5,376.833 412.5,394.5C 413.833,394.5 415.167,394.5 416.5,394.5C 415.081,395.451 413.415,395.784 411.5,395.5C 411.17,377.326 411.503,359.326 412.5,341.5 Z"/></g>
<g><path style="opacity:1" fill="#815039" d="M 442.5,335.5 C 444.167,335.5 445.833,335.5 447.5,335.5C 447.5,346.833 447.5,358.167 447.5,369.5C 446.5,369.5 445.5,369.5 444.5,369.5C 442.833,369.5 441.167,369.5 439.5,369.5C 441.607,368.532 443.941,368.198 446.5,368.5C 446.5,357.833 446.5,347.167 446.5,336.5C 435.648,338.115 424.815,340.115 414,342.5C 413.278,359.415 413.444,376.415 414.5,393.5C 415.329,388.533 415.829,383.533 416,378.5C 416.417,377.244 417.25,376.577 418.5,376.5C 416.644,382.282 415.977,388.282 416.5,394.5C 415.167,394.5 413.833,394.5 412.5,394.5C 412.5,376.833 412.5,359.167 412.5,341.5C 422.298,339.085 432.298,337.085 442.5,335.5 Z"/></g>
<g><path style="opacity:0.004" fill="#fefffe" d="M 207.5,360.5 C 208.833,361.167 208.833,361.167 207.5,360.5 Z"/></g>
<g><path style="opacity:0.004" fill="#fefffe" d="M 96.5,374.5 C 97.8333,375.167 97.8333,375.167 96.5,374.5 Z"/></g>
<g><path style="opacity:1" fill="#f29897" d="M 240.5,407.5 C 240.082,408.222 239.416,408.722 238.5,409C 232.032,411.102 227.365,409.268 224.5,403.5C 225.832,389.515 226.832,375.515 227.5,361.5C 232.833,361.5 238.167,361.5 243.5,361.5C 243.707,376.987 242.707,392.321 240.5,407.5 Z"/></g>
<g><path style="opacity:1" fill="#df7f80" d="M 338.5,375.5 C 338.5,382.833 338.5,390.167 338.5,397.5C 342.785,398.295 347.119,398.628 351.5,398.5C 354.906,398.956 358.239,399.622 361.5,400.5C 361.5,406.5 361.5,412.5 361.5,418.5C 338.167,418.5 314.833,418.5 291.5,418.5C 291.351,417.448 291.517,416.448 292,415.5C 292.333,415.833 292.667,416.167 293,416.5C 300.771,408.851 309.271,402.018 318.5,396C 322.785,391.26 326.952,386.427 331,381.5C 333.418,379.232 335.918,377.232 338.5,375.5 Z"/></g>
<g><path style="opacity:1" fill="#935639" d="M 395.5,343.5 C 397.5,343.5 399.5,343.5 401.5,343.5C 401.5,360.5 401.5,377.5 401.5,394.5C 399.5,394.5 397.5,394.5 395.5,394.5C 395.5,377.5 395.5,360.5 395.5,343.5 Z"/></g>
<g><path style="opacity:1" fill="#ddb79c" d="M 436.5,378.5 C 438.833,378.5 441.167,378.5 443.5,378.5C 443.5,384.5 443.5,390.5 443.5,396.5C 437.435,397.076 431.435,398.076 425.5,399.5C 425.334,393.491 425.501,387.491 426,381.5C 429.61,380.552 433.11,379.552 436.5,378.5 Z"/></g>
<g><path style="opacity:1" fill="#fdc9a4" d="M 439.5,379.5 C 440.5,379.5 441.5,379.5 442.5,379.5C 442.5,384.833 442.5,390.167 442.5,395.5C 438.124,395.637 433.791,395.804 429.5,396C 428.874,395.25 428.374,394.416 428,393.5C 427.501,389.848 427.335,386.182 427.5,382.5C 431.736,381.992 435.736,380.992 439.5,379.5 Z"/></g>
<g><path style="opacity:0.004" fill="#fefffe" d="M 50.5,389.5 C 51.8333,390.167 51.8333,390.167 50.5,389.5 Z"/></g>
<g><path style="opacity:0.004" fill="#fefffe" d="M 131.5,389.5 C 132.833,390.167 132.833,390.167 131.5,389.5 Z"/></g>
<g><path style="opacity:1" fill="#dc9899" d="M 240.5,407.5 C 242.707,392.321 243.707,376.987 243.5,361.5C 238.167,361.5 232.833,361.5 227.5,361.5C 226.832,375.515 225.832,389.515 224.5,403.5C 223.836,401.19 223.503,398.69 223.5,396C 224.74,384.196 225.406,372.363 225.5,360.5C 231.833,360.5 238.167,360.5 244.5,360.5C 244.667,374.504 244.5,388.504 244,402.5C 243.777,404.881 242.61,406.547 240.5,407.5 Z"/></g>
<g><path style="opacity:1" fill="#c77c7d" d="M 412.5,403.5 C 414.604,403.201 416.604,403.534 418.5,404.5C 420.015,405.591 420.848,406.924 421,408.5C 416.213,410.418 412.046,409.584 408.5,406C 410.066,405.392 411.4,404.558 412.5,403.5 Z"/></g>
<g><path style="opacity:0.004" fill="#fefffe" d="M 499.5,415.5 C 499.5,415.833 499.5,416.167 499.5,416.5C 498.83,416.019 498.83,415.685 499.5,415.5 Z"/></g>
<g><path style="opacity:0.004" fill="#fefffe" d="M 483.5,417.5 C 484.833,418.167 484.833,418.167 483.5,417.5 Z"/></g>
<g><path style="opacity:0.647" fill="#b27174" d="M 289.5,381.5 C 290.167,393.833 290.833,406.167 291.5,418.5C 314.833,418.5 338.167,418.5 361.5,418.5C 361.5,412.5 361.5,406.5 361.5,400.5C 362.49,406.645 362.823,412.978 362.5,419.5C 338.167,419.5 313.833,419.5 289.5,419.5C 289.5,406.833 289.5,394.167 289.5,381.5 Z"/></g>
<g><path style="opacity:0.004" fill="#fefffe" d="M 270.5,422.5 C 271.833,423.167 271.833,423.167 270.5,422.5 Z"/></g>
<g><path style="opacity:0.004" fill="#fefffe" d="M 422.5,429.5 C 423.833,430.167 423.833,430.167 422.5,429.5 Z"/></g>
<g><path style="opacity:0.004" fill="#fefffe" d="M 153.5,432.5 C 154.833,433.167 154.833,433.167 153.5,432.5 Z"/></g>
<g><path style="opacity:0.004" fill="#fefffe" d="M 74.5,435.5 C 75.8333,436.167 75.8333,436.167 74.5,435.5 Z"/></g>
<g><path style="opacity:0.004" fill="#fefffe" d="M 54.5,438.5 C 55.8333,439.167 55.8333,439.167 54.5,438.5 Z"/></g>
<g><path style="opacity:0.004" fill="#fefffe" d="M 417.5,467.5 C 418.833,468.167 418.833,468.167 417.5,467.5 Z"/></g>
<g><path style="opacity:0.004" fill="#fefffe" d="M 175.5,470.5 C 176.833,471.167 176.833,471.167 175.5,470.5 Z"/></g>
<g><path style="opacity:0.004" fill="#fefffe" d="M 244.5,475.5 C 245.833,476.167 245.833,476.167 244.5,475.5 Z"/></g>
<g><path style="opacity:0.004" fill="#fefffe" d="M 286.5,481.5 C 287.833,482.167 287.833,482.167 286.5,481.5 Z"/></g>
<g><path style="opacity:0.004" fill="#fefffe" d="M 339.5,481.5 C 340.833,482.167 340.833,482.167 339.5,481.5 Z"/></g>
<g><path style="opacity:0.004" fill="#fefffe" d="M 354.5,481.5 C 355.833,482.167 355.833,482.167 354.5,481.5 Z"/></g>
<g><path style="opacity:0.004" fill="#fefffe" d="M 200.5,484.5 C 201.833,485.167 201.833,485.167 200.5,484.5 Z"/></g>
<g><path style="opacity:0.004" fill="#fefffe" d="M 105.5,488.5 C 106.833,489.167 106.833,489.167 105.5,488.5 Z"/></g>
<g><path style="opacity:0.004" fill="#fefffe" d="M 408.5,495.5 C 409.833,496.167 409.833,496.167 408.5,495.5 Z"/></g>
</svg>
